<?xml version="1.0" encoding="utf-8"?>
<!-- Generator: Adobe Illustrator 23.1.0, SVG Export Plug-In . SVG Version: 6.00 Build 0)  -->
<svg version="1.1" id="Layer_1" xmlns="http://www.w3.org/2000/svg" xmlns:xlink="http://www.w3.org/1999/xlink" x="0px" y="0px"
	 viewBox="0 0 293.9 293.9" style="enable-background:new 0 0 293.9 293.9;" xml:space="preserve">
<style type="text/css">
	.st0{fill:#472425;}
</style>
<g>
	<path class="st0" d="M3.6,290.3L3.6,290.3c4.7,4.7,12.3,4.7,17,0L290.3,20.6c4.7-4.7,4.7-12.3,0-17l0,0c-4.7-4.7-12.3-4.7-17,0
		L3.6,273.3C-1.1,278-1.1,285.6,3.6,290.3z"/>
</g>
<path class="st0" d="M290.3,290.3L290.3,290.3c4.9-4.9,4.9-12.7,0-17.6L21.2,3.6c-4.9-4.9-12.7-4.9-17.6,0l0,0
	c-4.9,4.9-4.9,12.7,0,17.6l269.1,269.1C277.6,295.1,285.4,295.1,290.3,290.3z"/>
</svg>
