<svg width="57" height="46" viewBox="0 0 57 46" fill="none" xmlns="http://www.w3.org/2000/svg">
<g clip-path="url(#clip0_2_2747)">
<path d="M34.277 0V24.7542H0V46H34.277H35.8176H57.1926V0H34.277ZM55.652 1.55932V13.6441H35.625V1.55932H55.652ZM1.54054 31.9661H11.1689V30.4068H1.54054V26.1186H17.1385V44.4407H1.54054V31.9661ZM34.277 44.4407H18.4865V26.1186H34.0845V44.4407H34.277ZM35.625 44.4407V24.7542V15.0085H55.4595V44.4407H35.625V44.4407Z" fill="#472425"/>
<path d="M31.966 42.1019V28.8477H20.6045V42.1019H31.966ZM21.9525 30.2121H30.4254V40.5426H21.9525V30.2121Z" fill="#472425"/>
<path d="M39.669 5.84766H38.1284V11.3053H39.669V5.84766Z" fill="#472425"/>
<path d="M39.669 17.542H38.1284V22.9996H39.669V17.542Z" fill="#472425"/>
</g>
<defs>
<clipPath id="clip0_2_2747">
<rect width="57" height="46" fill="white"/>
</clipPath>
</defs>
</svg>
