<svg width="47" height="46" viewBox="0 0 47 46" fill="none" xmlns="http://www.w3.org/2000/svg">
<path d="M47 16.5312V15.0937H39.1069V12.3984H42.1565C42.874 12.3984 43.4122 11.8594 43.4122 11.1406V1.25781C43.4122 0.539062 42.874 0 42.1565 0H1.25573C0.538168 0 0 0.539062 0 1.25781V10.9609C0 11.6797 0.538168 12.2188 1.25573 12.2188H4.30534V38.4531H2.69084C1.25573 38.4531 0 39.7109 0 41.1484V45.8203H43.4122V40.9688C43.4122 39.5312 42.3359 38.4531 40.9008 38.4531H39.1069V16.5312H47ZM37.8511 15.0937H27.0878L26.3702 12.3984H37.8511V15.0937ZM18.4771 12.3984H24.9351L26.3702 17.7891H17.2214L18.4771 12.3984ZM1.43511 11.1406V1.4375H42.1565V11.1406H39.1069H24.7557H18.2977H4.30534H1.43511ZM41.0802 39.8906C41.6183 39.8906 42.1565 40.4297 42.1565 40.9688V44.5625H1.43511V41.1484C1.43511 40.4297 1.97328 39.8906 2.69084 39.8906H4.30534H17.4008H26.3702H39.2863H41.0802ZM17.042 38.4531L15.0687 30.9063C15.0687 30.7266 15.0687 30.7266 15.0687 30.7266C15.0687 30.7266 15.2481 30.5469 15.4275 30.5469H28.1641C28.3435 30.5469 28.3435 30.5469 28.3435 30.7266V30.9063L26.5496 38.4531C26.5496 38.6328 26.3702 38.6328 26.1908 38.6328H17.2214L17.042 38.4531ZM37.8511 38.6328H27.8053L29.5992 31.2656C29.7786 30.7266 29.5992 30.1875 29.2405 29.8281C28.8817 29.4688 28.5229 29.2891 27.9847 29.2891H15.4275C14.8893 29.2891 14.5305 29.4688 14.1718 30.0078C13.813 30.3672 13.813 30.9062 13.813 31.4453L15.7863 38.8125H5.74046V12.3984H17.2214L15.7863 17.6094C15.6069 17.9688 15.7863 18.5078 15.9656 18.6875C16.145 19.0469 16.6832 19.2266 17.042 19.2266H26.1908C26.5496 19.2266 27.0878 19.0469 27.2672 18.6875C27.4466 18.3281 27.626 17.9688 27.4466 17.4297L27.0878 16.3516H37.4924V38.6328H37.8511Z" fill="#472425"/>
<path d="M31.7518 7.54687C32.4694 7.54687 33.0075 7.00781 33.0075 6.28906C33.0075 5.57031 32.4694 5.03125 31.7518 5.03125C31.0343 5.03125 30.4961 5.57031 30.4961 6.28906C30.4961 6.82812 31.0343 7.54687 31.7518 7.54687Z" fill="#472425"/>
<path d="M37.6717 7.54687C38.3893 7.54687 38.9275 7.00781 38.9275 6.28906C38.9275 5.57031 38.3893 5.03125 37.6717 5.03125C36.9542 5.03125 36.416 5.57031 36.416 6.28906C36.416 6.82812 36.9542 7.54687 37.6717 7.54687Z" fill="#472425"/>
</svg>
