<?xml version="1.0" encoding="utf-8"?>
<!-- Generator: Adobe Illustrator 23.1.0, SVG Export Plug-In . SVG Version: 6.00 Build 0)  -->
<svg version="1.1" xmlns="http://www.w3.org/2000/svg" xmlns:xlink="http://www.w3.org/1999/xlink" x="0px" y="0px"
	 viewBox="0 0 509.4 171.3" style="enable-background:new 0 0 509.4 171.3;" xml:space="preserve">
<style type="text/css">
	.st0{fill:#FFFFFF;}
</style>
<g id="Primary__x2B_JH_White">
	<g>
		<g>
			<path class="st0" d="M448.6,15.5c-9,0-12.7,6.2-14.2,9.8v-9v-0.8h-0.4c-1.1,1.1-2.5,2.1-4,3c-1.6,0.9-3.2,1.6-4.9,2.1
				c-1.7,0.5-3.5,0.9-5.2,1v0.3c1.4,0.6,2.5,1.6,3.2,2.9c0.7,1.4,1,2.9,1,4.6v1.8l0,0v48.8h10.3V32.5v-0.4
				c1.5-6.9,4.7-11.5,10.1-11.5c5.7,0,9.6,5,9.6,13v46.4h10.3V32.1C464.5,22.5,458.2,15.5,448.6,15.5z"/>
			<path class="st0" d="M50.8,18.8L47.3,0H47c-0.6,1.1-1.5,1.8-2.5,2.4c-1.1,0.5-2.4,0.8-4,0.8H10.2c-1.5,0-2.8-0.3-3.8-0.8
				C5.3,1.9,4.4,1.1,3.8,0H3.5L0,18.8L0.4,19c1.1-1.9,2.3-3.7,3.5-5.3c1.2-1.6,2.5-3.1,3.9-4.4c1.3-1.3,2.7-2.3,4-3.1
				c1.3-0.8,2.7-1.1,4-1.1c1.5,0,2.6,0.4,3.3,1.1c0.7,0.8,1.1,1.9,1.1,3.5v9.9v2v48.6c0,2-0.3,3.7-1,5.3c-0.7,1.5-1.9,3-3.7,4.2v0.3
				h19.5v-0.3c-1.6-1.3-2.7-2.7-3.4-4.2c-0.7-1.5-1.1-3.3-1.1-5.3V21.6h0V9.7c0-1.6,0.4-2.7,1.1-3.5c0.7-0.8,1.8-1.1,3.3-1.1
				c1.3,0,2.6,0.4,4,1.1c1.4,0.8,2.7,1.8,4,3c1.3,1.3,2.6,2.7,3.8,4.4c1.2,1.7,2.5,3.5,3.7,5.4L50.8,18.8z"/>
			<path class="st0" d="M120.7,78.2c-6.4,0-8.8-5.9-8.8-11.3V36.4h0V21H123v-2.7h-11.2V3.9h-0.3c-1.1,2.4-2.5,4.7-4.1,6.8
				c-1.6,2.1-3.5,4-5.5,5.7c-2.1,1.7-4.3,3.1-6.6,4.2V21h6.2v4.9h0v39.6c0,9.3,4.8,15.9,16.1,15.9c3.7,0,6.9-0.7,9.5-3.2l-0.9-2.3
				C124.1,77.6,122.7,78.2,120.7,78.2z"/>
			<path class="st0" d="M92.6,44.3c0-15.7-6.5-28.9-20.2-28.9C58.1,15.4,47,29.7,47,50c0,17.4,6.4,31.5,26.2,31.5
				c6.9,0,13-4.8,17-11.3l-3.1-0.5c-3.8,6.3-9.4,8.4-13.6,8.4c-10.4,0-15.3-15.4-15.3-29.4c0-1.8,0-3.6,0.1-4.4H92.6z M71.9,18.8
				c9.1,0,12.4,12.2,12.4,21.6H58.8C60.2,29.1,63.5,18.8,71.9,18.8z"/>
			<path class="st0" d="M149.6,15.4c-18.2,0-24,14.5-24,34.6c0,20.6,6.2,31.4,21.9,31.4c14.6,0,24.2-9.2,24.2-34.5
				C171.8,25.9,165,15.4,149.6,15.4z M150.2,78.2c-9.5,0-14.2-11.1-14.2-32.9c0-19.3,3.7-26.4,10.7-26.4c8.7,0,15.2,11,15.2,33.9
				C161.9,71.9,157.4,78.2,150.2,78.2z"/>
			<path class="st0" d="M376.5,15.4c-6.6,0-11.9,3.6-14.5,10.9V17V7.7V0h-0.4c-1.1,1.1-2.5,2.1-4,3c-1.6,0.9-3.2,1.6-4.9,2.1
				c-1.7,0.5-3.5,0.9-5.2,1v0.3c1.4,0.6,2.5,1.6,3.2,2.9c0.7,1.4,1,2.9,1,4.6l0,66.1h8.2l2.1-7.4c1.6,5.5,6.1,8.8,12.3,8.8
				c12.8,0,20.7-14.1,20.7-35C395,27.5,388.5,15.4,376.5,15.4z M373.9,78.8c-5.3,0-10.1-6.3-11.9-13.8V32.2
				c1.8-7.2,5.9-11.8,11.2-11.8c9.2,0,11.2,13.8,11.2,28.4C384.4,67.6,381.2,78.8,373.9,78.8z"/>
			<path class="st0" d="M406.8,12.2c3.3,0,6-2.9,6-6.2c0-3.4-2.5-6.1-6-6.1c-3.3,0-6.1,2.7-6.1,6.1C400.7,9.3,403.5,12.2,406.8,12.2
				z"/>
			<path class="st0" d="M205.6,15.4c-9,0-12.7,6.2-14.2,9.8v-9.1v-0.8H191c-1.1,1.1-2.5,2.1-4,3c-1.6,0.9-3.2,1.6-4.9,2.1
				c-1.7,0.5-3.5,0.9-5.2,1v0.3c1.4,0.6,2.5,1.6,3.2,2.9c0.7,1.4,1,2.9,1,4.6v1.8l0,0v48.8h10.3V32.4V32c1.5-6.9,4.7-11.5,10.1-11.5
				c5.7,0,9.6,5,9.6,13v46.4h10.3V32C221.5,22.4,215.2,15.4,205.6,15.4z"/>
			<path class="st0" d="M408.3,18.4c-1.6,0.9-3.2,1.6-4.9,2.1c-1.7,0.5-3.5,0.9-5.2,1v0.3c1.4,0.6,2.5,1.6,3.2,2.9
				c0.7,1.4,1,2.9,1,4.6v50.7h10.3V32.4V21.6v-6.2h-0.4C411.2,16.5,409.9,17.5,408.3,18.4z"/>
			<path class="st0" d="M346.4,76.2c-0.7,0.4-1.4,0.6-2.2,0.6c-1.4,0-2.5-0.7-3.2-2c-0.6-1.2-1-2.8-1-4.8c0-2.8,0-6.1,0.1-9.8
				c0.1-3.6,0.1-7.5,0.2-11.4c0-3.9,0.1-7.5,0.1-11c0-3.5,0-6.5,0-9c0-4.1-1.3-7.4-3.8-9.8c-2.5-2.4-6.3-3.6-11.1-3.6
				c-2.6,0-5.3,0.5-8,1.3c-2.7,0.9-5.1,2.1-7.2,3.7c-2.1,1.5-3.8,3.3-5,5.3c-1.2,1.9-1.9,4-1.9,6.1c0,1.8,0.4,3.3,1.3,4.4
				c0.8,1.1,1.9,1.7,3.3,1.7c1.4,0,2.5-0.4,3.3-1.3c0.9-1,1.7-2.2,2.3-3.7c0.7-1.5,1.3-3.2,1.9-4.9c0.6-1.7,1.3-3.4,2-5
				c0.8-1.6,1.7-2.9,2.9-3.9c1.2-1,2.7-1.6,4.5-1.6c1.8,0,3.2,0.7,4,2.2c0.7,1.4,1.1,3.2,1.1,5.6c0,1.8,0,4.2,0,7c0,2.5,0,5.3,0,8.3
				c-6.1,1-11.3,3.1-15.5,5.5c-4.5,2.6-7.9,5.7-10.1,9.3c-2.2,3.5-3.4,7.4-3.4,11.4c0,2.8,0.5,5.4,1.5,7.6c1,2.2,2.3,3.9,4,5.1
				c1.7,1.2,3.6,2.1,5.7,2.1c2.2,0,4.3-0.9,6.4-1.9c2.1-1.1,4.1-2.5,6.1-4.3c1.9-1.7,3.7-3.4,5.1-5.5c0,0.6,0,1.1,0,1.7
				c0,2.2,0.3,4.1,1,5.6c0.6,1.5,1.6,2.6,2.7,3.3c1.4,0.9,3.1,1.2,4.9,1c0,0,0,0,0,0c5.8,0,9.2-4.5,9.2-4.5l-0.3-1.3L346.4,76.2z
				 M330,52l-0.1,10.4c0,1.8,0,3.5,0,5.2l0,0c-1.2,1.8-2.7,3.4-4.4,4.6c-1.9,1.3-3.9,1.9-5.6,1.9c-2.4,0-4.2-1-5.6-3.1
				c-1.3-2-2-4.8-2-8.3c0-3.3,0.7-6.5,2-9.3c1.3-2.9,3.1-4.6,5.9-6.6c2.6-1.9,6-3.3,9.9-4.2C330.1,45.5,330.1,48.7,330,52z"/>
			<path class="st0" d="M502.5,49.2c-4-2.9-10.9-5.9-15.7-9.5c-3.7-2.9-5.4-5.8-5.4-9.8c0-7,4.7-12.7,10.5-12.8
				c1.3,0,2.5,0.4,3.3,1.2c0.9,0.8,1.7,1.8,2.3,3.1c0.6,1.2,1.1,2.6,1.6,3.9c0.5,1.4,1,2.7,1.5,3.9c0.5,1.2,1.1,2.2,1.8,2.9
				c0.7,0.7,1.5,1.1,2.6,1.1c1.1,0,1.9-0.4,2.6-1.3c0.7-0.9,1-2.1,1-3.5c0-1.7-0.5-3.3-1.5-4.8c-1-1.6-2.3-3-4-4.2
				c-0.7-0.5-1.4-0.9-2.1-1.3c-2.6-1.6-5.9-2.6-9.5-2.6c-0.1,0-0.3,0-0.4,0c-0.8,0-1.6,0.1-2.3,0.1l0,0c-9.8,1.1-16.4,8.6-16.4,18.2
				c0,5.4,2.2,9.8,6.4,13.2c3.8,3.1,10.1,6.2,14.4,9.2c4.6,3.4,6.4,6.6,6.4,10.3c0,6.5-4.8,13.3-11.1,13.3c-0.5,0-1.1-0.1-1.6-0.1
				c-0.9-0.2-1.7-0.5-2.3-1.1c-0.9-0.8-1.7-1.8-2.3-3.1c-0.6-1.2-1.1-2.6-1.6-3.9c-0.5-1.4-1-2.7-1.5-3.9c-0.5-1.2-1.1-2.2-1.8-2.9
				c-0.7-0.7-1.5-1.1-2.6-1.1c-1.1,0-1.9,0.4-2.6,1.3c-0.7,0.9-1,2.1-1,3.5c0,1.7,0.5,3.3,1.5,4.8c1,1.6,2.3,3,4,4.2
				c1.3,1,2.8,1.8,4.4,2.4c2.4,1,5.2,1.6,8.5,1.6c13.3,0,19.9-9.3,19.9-19C509.4,56.7,507,52.2,502.5,49.2z"/>
			<path class="st0" d="M297.6,12.9c-0.2-1.3-0.6-2.6-1.4-3.8c-1-1.5-2.3-2.9-3.9-4.1c-1.3-0.9-2.7-1.7-4.2-2.3
				c-2.8-1.3-6-1.9-9.8-1.9c-19.6,0-27.6,13.6-27.6,41.7c0,28,7.5,38.8,26.8,38.9h0.8c13.5-0.3,17.9-11.1,17.9-11.1l-3.1-0.5
				c0,0,0,0,0,0l0,0c-1.3,2.2-2.9,3.8-4.5,5.1c-2.7,2-6.2,3.1-10.9,3c-10.5-0.2-16.4-15.5-16.4-37.9c0-22.2,5.6-37.3,17.6-37.3
				c0.9,0,1.8,0.1,2.6,0.3c2.2,0.5,4.1,1.9,5.1,4c0,0,0,0,0,0c0.6,1.2,1.1,2.5,1.6,3.9c0.5,1.3,1,2.6,1.5,3.8
				c0.5,1.2,1.1,2.2,1.8,2.9c0.7,0.7,1.5,1,2.6,1c1.1,0,1.9-0.4,2.6-1.3c0.7-0.9,1-2,1-3.4c0-0.3,0-0.5-0.1-0.8l0.1,0
				C297.7,13,297.7,12.9,297.6,12.9z"/>
		</g>
		<g>
			<path class="st0" d="M101.4,163.5h4.5c0.4,2.6,1.9,3.8,5,3.8c4.6,0,4.7-2.7,4.7-7.7v-11.1h4.5v12.6c0,6.2-1.4,10.1-9.1,10.1
				C105,171.3,101.7,168.6,101.4,163.5z"/>
			<path class="st0" d="M135.2,148.6h4.7l10.5,22.2h-4.8l-2.6-5.2h-10.9l-2.6,5.2h-4.8L135.2,148.6z M141.5,161.5l-4-7.9l-4,7.9
				H141.5z"/>
			<path class="st0" d="M153.4,159.8c0-6.8,5-11.7,13-11.7c6.9,0,11.6,4.2,12.3,9.1h-4.6c-0.7-2.8-3.7-5.2-7.9-5.2
				c-5.1,0-8.1,3.4-8.1,7.7c0,4.3,3.1,7.7,8.2,7.7c4.3,0,7.2-2.5,7.9-5.3h4.6c-0.7,5-5.4,9.2-12.5,9.2
				C158.1,171.3,153.4,166.3,153.4,159.8z"/>
			<path class="st0" d="M198.7,170.8l-10.2-9.9v9.9h-4.4v-22.2h4.4v9.7l9.7-9.7h5.4l-11.2,11l11.8,11.3H198.7z"/>
			<path class="st0" d="M206.5,163.6h4.7c0.9,2.9,3.7,3.9,7.5,3.9c3,0,5-0.9,5-2.5c0-1.7-2.4-2.5-4.4-3c-1.7-0.5-3.7-0.8-5.9-1.6
				c-3.2-1.1-5.6-2.6-5.6-5.8c0-4.8,5.2-6.6,9.8-6.6c6.3,0,9.7,3,9.8,7.4h-4.7c-0.3-3-3.2-3.7-5.5-3.7c-1.6,0-4.7,0.4-4.7,2.5
				c0,1.3,1,2,3.1,2.5c1.5,0.4,2.5,0.7,4.8,1.3c2.2,0.5,7.6,1.5,7.6,6.5c0,4.4-3.4,6.6-9.8,6.6C210.6,171.3,207,168.1,206.5,163.6z"
				/>
			<path class="st0" d="M233.2,159.7c0-6.6,5-11.6,13.2-11.6c8.1,0,13.1,5,13.1,11.6s-5,11.6-13.1,11.6
				C238.3,171.3,233.2,166.2,233.2,159.7z M254.8,159.7c0-4-3.2-7.7-8.5-7.7c-5.3,0-8.5,3.7-8.5,7.7s3.2,7.7,8.5,7.7
				C251.7,167.4,254.8,163.7,254.8,159.7z"/>
			<path class="st0" d="M265.6,148.6h4.3l12.2,15.1v-15.1h4.4v22.2h-4.5L270,156.2v14.6h-4.4V148.6z"/>
			<path class="st0" d="M327.3,148.6v22.2h-4.4v-9.2h-12.1v9.2h-4.4v-22.2h4.4v8.8h12.1v-8.8H327.3z"/>
			<path class="st0" d="M333.5,159.7c0-6.6,5-11.6,13.2-11.6c8.1,0,13.1,5,13.1,11.6s-5,11.6-13.1,11.6
				C338.6,171.3,333.5,166.2,333.5,159.7z M355.1,159.7c0-4-3.2-7.7-8.5-7.7c-5.3,0-8.5,3.7-8.5,7.7s3.2,7.7,8.5,7.7
				C352,167.4,355.1,163.7,355.1,159.7z"/>
			<path class="st0" d="M384,166.5v4.3h-18.1v-22.2h4.4v17.9H384z"/>
			<path class="st0" d="M408.1,166.5v4.3h-19v-22.2h18.4v4.3h-14v4.5h12.7v4h-12.7v5.1H408.1z"/>
		</g>
	</g>
</g>
<g id="Primary_Logo_Black">
</g>
<g id="Primary_Logo_White">
</g>
<g id="Primary__x2B__JH_Black">
</g>
</svg>
