<?xml version="1.0" encoding="utf-8"?>
<!-- Generator: Adobe Illustrator 23.1.0, SVG Export Plug-In . SVG Version: 6.00 Build 0)  -->
<svg version="1.1" id="Layer_1" xmlns="http://www.w3.org/2000/svg" xmlns:xlink="http://www.w3.org/1999/xlink" x="0px" y="0px"
	 viewBox="0 0 349.5 300.3" style="enable-background:new 0 0 349.5 300.3;" xml:space="preserve">
<style type="text/css">
	.st0{fill:#F3F1ED;}
</style>
<g>
	<path class="st0" d="M174.8,300.3L25.1,167.9C6.8,146.8-1.8,120.6,0.3,93.6c2-27,14.5-51.6,35-69.2c41.1-35.3,102.5-31.8,139.4,7
		c36.9-38.8,98.4-42.2,139.4-7l0,0c20.5,17.6,33,42.2,35,69.2c2.1,27-6.5,53.2-24.2,73.7L174.8,300.3z M101.3,12
		C80.7,12,60,19.1,43.2,33.6c-18.1,15.5-29.1,37.2-30.9,61s5.8,46.9,21.3,65l141.1,124.7L316.4,159c15-17.5,22.5-40.6,20.7-64.4
		s-12.8-45.4-30.9-61c-37.4-32.1-93.9-27.8-126,9.6l-5.6,6.6l-5.6-6.6C151.5,22.6,126.5,12,101.3,12z"/>
</g>
</svg>
