<?xml version="1.0" encoding="utf-8"?>
<!-- Generator: Adobe Illustrator 23.1.0, SVG Export Plug-In . SVG Version: 6.00 Build 0)  -->
<svg version="1.1" id="Layer_1" xmlns="http://www.w3.org/2000/svg" xmlns:xlink="http://www.w3.org/1999/xlink" x="0px" y="0px"
	 viewBox="0 0 184 221" style="enable-background:new 0 0 184 221;" xml:space="preserve">
<style type="text/css">
	.st0{fill:#F3F1ED;}
</style>
<path class="st0" d="M134.6,116.5l5.5-8.6c-0.4-0.2-38.5-25-41.4-58.3H88.5c-2.9,33.3-41,58.1-41.4,58.3l5.5,8.6
	c1.3-0.8,22.6-14.7,35.9-36.6v8.6c-2.9,33.3-41,58.1-41.4,58.3l5.5,8.6c1.3-0.8,22.6-14.7,35.9-36.6v55.4h10.1v-55.3
	c13.3,21.9,34.6,35.8,35.9,36.6l5.5-8.6c-0.4-0.2-38.5-25-41.4-58.3v-8.6C111.9,101.8,133.3,115.7,134.6,116.5z"/>
<path class="st0" d="M94.6,210.4c-46.6,0-84.4-44.8-84.4-99.8c0-55,37.9-99.8,84.4-99.8c34.9,0,66.1,25.5,78.7,63.8H184
	c-13.2-44.3-49-74-89.4-74C42.4,0.7,0,50,0,110.6c0,60.6,42.4,109.9,94.6,109.9c39.1,0,73.7-27.4,88-69.7h-10.8
	C158.3,187.1,128.3,210.4,94.6,210.4z"/>
</svg>
