<svg width="98" height="15" viewBox="0 0 98 15" fill="none" xmlns="http://www.w3.org/2000/svg">
<path d="M27.8549 1.17082C27.9747 0.802297 28.496 0.802296 28.6158 1.17082L29.8294 4.90598C29.883 5.07079 30.0365 5.18237 30.2098 5.18237H34.1372C34.5247 5.18237 34.6858 5.67822 34.3723 5.90598L31.195 8.21443C31.0548 8.31629 30.9961 8.49684 31.0497 8.66165L32.2633 12.3968C32.3831 12.7653 31.9613 13.0718 31.6478 12.844L28.4705 10.5356C28.3303 10.4337 28.1404 10.4337 28.0002 10.5356L24.8229 12.844C24.5094 13.0718 24.0876 12.7653 24.2074 12.3968L25.421 8.66165C25.4746 8.49684 25.4159 8.31629 25.2757 8.21443L22.0984 5.90598C21.7849 5.67822 21.946 5.18237 22.3335 5.18237H26.2609C26.4342 5.18237 26.5878 5.07079 26.6413 4.90598L27.8549 1.17082Z" fill="#D9AF19"/>
<path d="M7.11958 1.17082C7.23932 0.802297 7.76068 0.802296 7.88042 1.17082L9.09405 4.90598C9.1476 5.07079 9.30118 5.18237 9.47447 5.18237H13.4018C13.7893 5.18237 13.9504 5.67822 13.637 5.90598L10.4596 8.21443C10.3195 8.31629 10.2608 8.49684 10.3143 8.66165L11.528 12.3968C11.6477 12.7653 11.2259 13.0718 10.9124 12.844L7.73511 10.5356C7.59492 10.4337 7.40508 10.4337 7.26489 10.5356L4.08757 12.844C3.77408 13.0718 3.35229 12.7653 3.47203 12.3968L4.68566 8.66165C4.73921 8.49684 4.68055 8.31629 4.54035 8.21443L1.36304 5.90598C1.04955 5.67822 1.21066 5.18237 1.59815 5.18237H5.52553C5.69882 5.18237 5.8524 5.07079 5.90595 4.90598L7.11958 1.17082Z" fill="#D9AF19"/>
<path d="M48.5903 1.17082C48.71 0.802297 49.2314 0.802296 49.3511 1.17082L50.5648 4.90598C50.6183 5.07079 50.7719 5.18237 50.9452 5.18237H54.8726C55.26 5.18237 55.4212 5.67822 55.1077 5.90598L51.9304 8.21443C51.7902 8.31629 51.7315 8.49684 51.785 8.66165L52.9987 12.3968C53.1184 12.7653 52.6966 13.0718 52.3831 12.844L49.2058 10.5356C49.0656 10.4337 48.8758 10.4337 48.7356 10.5356L45.5583 12.844C45.2448 13.0718 44.823 12.7653 44.9427 12.3968L46.1564 8.66165C46.2099 8.49684 46.1512 8.31629 46.0111 8.21443L42.8337 5.90598C42.5203 5.67822 42.6814 5.18237 43.0689 5.18237H46.9962C47.1695 5.18237 47.3231 5.07079 47.3767 4.90598L48.5903 1.17082Z" fill="#D9AF19"/>
<path d="M69.3256 1.17082C69.4454 0.802297 69.9667 0.802296 70.0865 1.17082L71.3001 4.90598C71.3537 5.07079 71.5072 5.18237 71.6805 5.18237H75.6079C75.9954 5.18237 76.1565 5.67822 75.843 5.90598L72.6657 8.21443C72.5255 8.31629 72.4668 8.49684 72.5204 8.66165L73.734 12.3968C73.8538 12.7653 73.432 13.0718 73.1185 12.844L69.9412 10.5356C69.801 10.4337 69.6111 10.4337 69.4709 10.5356L66.2936 12.844C65.9801 13.0718 65.5583 12.7653 65.6781 12.3968L66.8917 8.66165C66.9453 8.49684 66.8866 8.31629 66.7464 8.21443L63.5691 5.90598C63.2556 5.67822 63.4167 5.18237 63.8042 5.18237H67.7316C67.9049 5.18237 68.0585 5.07079 68.112 4.90598L69.3256 1.17082Z" fill="#D9AF19"/>
<path d="M90.0605 1.17082C90.1802 0.802297 90.7016 0.802296 90.8213 1.17082L92.035 4.90598C92.0885 5.07079 92.2421 5.18237 92.4154 5.18237H96.3428C96.7303 5.18237 96.8914 5.67822 96.5779 5.90598L93.4006 8.21443C93.2604 8.31629 93.2017 8.49684 93.2553 8.66165L94.4689 12.3968C94.5886 12.7653 94.1668 13.0718 93.8533 12.844L90.676 10.5356C90.5358 10.4337 90.346 10.4337 90.2058 10.5356L87.0285 12.844C86.715 13.0718 86.2932 12.7653 86.413 12.3968L87.6266 8.66165C87.6801 8.49684 87.6215 8.31629 87.4813 8.21443L84.304 5.90598C83.9905 5.67822 84.1516 5.18237 84.5391 5.18237H88.4664C88.6397 5.18237 88.7933 5.07079 88.8469 4.90598L90.0605 1.17082Z" fill="#D9AF19"/>
</svg>
