<?xml version="1.0" encoding="utf-8"?>
<!-- Generator: Adobe Illustrator 23.1.0, SVG Export Plug-In . SVG Version: 6.00 Build 0)  -->
<svg version="1.1" id="Layer_1" xmlns="http://www.w3.org/2000/svg" xmlns:xlink="http://www.w3.org/1999/xlink" x="0px" y="0px"
	 viewBox="0 0 604.5 304.5" style="enable-background:new 0 0 604.5 304.5;" xml:space="preserve">
<style type="text/css">
	.st0{fill:#F3F1ED;}
</style>
<path class="st0" d="M604.5,177.2L455.2,68H259.7V44.1H233V68h-26.2L187.2,0l-66.8,232.3L74.9,121.8L0,304.5h576.1V177.2H604.5z
	 M240.7,51.8h11.4V68h-11.4V51.8z M452.8,75.6l128.4,94H236.4v1.3L209,75.6C209,75.6,452.8,75.6,452.8,75.6z M264.7,296.9h-155
	l77.5-269.2L264.7,296.9z M267.7,279.7l-3.4-11.6h220.2H534h34.5v10.6H267.7V279.7z M526.4,260.5h-34.2v-46.3h34.2V260.5z
	 M484.6,224.1H253.8v7.2l-5.1-17.8h235.9V224.1z M484.6,231.7v10.6H256.9l-3.1-10.6H484.6z M484.6,249.9v10.6H262.9v2.8l-3.9-13.4
	H484.6z M534,260.5v-10.6h34.5v10.6H534z M534,242.3v-10.6h34.5v10.6H534z M534,224.1v-10.6h34.5v10.6H534z M568.5,205.9H247.7v4.3
	l-4.3-14.8h325.1L568.5,205.9L568.5,205.9z M74.9,141.8l42,102.4l-15.2,52.7H11.3L74.9,141.8z M272.6,296.9l-3.1-10.6h298.9v10.6
	H272.6z M568.5,187.7H241.4v0.7l-3.3-11.3h330.4V187.7z"/>
</svg>
