<svg width="362" height="254" viewBox="0 0 362 254" fill="none" xmlns="http://www.w3.org/2000/svg">
<path d="M318.837 138.241C312.431 138.241 309.805 142.633 308.755 145.247V138.869V138.346H308.545C307.705 139.182 306.76 139.81 305.71 140.437C304.554 141.065 303.399 141.587 302.244 141.901C300.984 142.319 299.829 142.529 298.568 142.633V142.842C299.619 143.261 300.354 143.993 300.879 144.934C301.404 145.875 301.614 147.025 301.614 148.175V149.43V183.938H308.965V150.371V150.058C310.015 145.247 312.326 141.901 316.212 141.901C320.202 141.901 323.038 145.457 323.038 151.103V183.938H330.389V150.058C330.074 143.156 325.663 138.241 318.837 138.241Z" fill="white"/>
<path d="M36.1265 140.542L33.606 127.261H33.396C32.9759 127.993 32.3458 128.516 31.6107 128.934C30.8755 129.353 29.9304 129.457 28.7752 129.457H7.2463C6.19611 129.457 5.25094 129.248 4.51581 128.934C3.78068 128.516 3.15057 127.993 2.73049 127.261H2.52045L0 140.542L0.315057 140.751C1.15521 139.391 1.99536 138.136 2.83551 136.986C3.67566 135.836 4.62083 134.79 5.566 133.849C6.51117 132.908 7.45634 132.176 8.40151 131.653C9.34668 131.13 10.2918 130.817 11.237 130.817C12.2872 130.817 13.1274 131.13 13.6524 131.653C14.1775 132.176 14.3876 133.013 14.3876 134.163V141.169V142.528V176.932C14.3876 178.291 14.1775 179.546 13.6524 180.696C13.1274 181.742 12.2872 182.788 11.027 183.624V183.833H24.8895V183.624C23.7343 182.788 22.9991 181.742 22.474 180.696C21.9489 179.651 21.7389 178.396 21.7389 176.932V142.528V134.163C21.7389 133.013 21.9489 132.176 22.474 131.653C22.9991 131.13 23.7343 130.817 24.8895 130.817C25.8346 130.817 26.7798 131.13 27.725 131.653C28.6701 132.176 29.6153 132.908 30.5605 133.745C31.5057 134.581 32.3458 135.627 33.291 136.882C34.1311 138.032 35.0763 139.287 35.9164 140.646L36.1265 140.542Z" fill="white"/>
<path d="M85.6956 182.579C81.1798 182.579 79.3944 178.396 79.3944 174.527V152.881V142.006H87.3759V140.123H79.3944V129.98H79.1844C78.3442 131.653 77.3991 133.326 76.2439 134.79C75.0887 136.254 73.8284 137.614 72.3582 138.868C70.8879 140.019 69.3126 141.064 67.6323 141.796V142.006H72.0431V145.456V173.586C72.0431 180.173 75.4037 184.775 83.4902 184.775C86.1156 184.775 88.321 184.252 90.2114 182.579L89.5813 181.01C88.216 182.16 87.2708 182.579 85.6956 182.579Z" fill="white"/>
<path d="M65.8468 158.528C65.8468 147.443 61.226 138.137 51.5643 138.137C41.3774 138.137 33.396 148.28 33.396 162.606C33.396 174.945 38.0168 184.879 52.0894 184.879C57.0252 184.879 61.331 181.429 64.1665 176.932L61.9611 176.514C59.2306 180.906 55.2399 182.474 52.2994 182.474C44.8431 182.474 41.4824 171.599 41.4824 161.665C41.4824 160.41 41.4824 159.155 41.5875 158.528H65.8468ZM51.0392 140.542C57.5503 140.542 59.8608 149.221 59.8608 155.809H41.7975C42.7427 147.862 45.1581 140.542 51.0392 140.542Z" fill="white"/>
<path d="M106.384 138.137C93.4669 138.137 89.2661 148.385 89.2661 162.606C89.2661 177.246 93.6769 184.775 104.809 184.775C115.206 184.775 122.032 178.292 122.032 160.306C122.032 145.561 117.306 138.137 106.384 138.137ZM106.804 182.579C100.083 182.579 96.7224 174.736 96.7224 159.364C96.7224 145.77 99.3479 140.646 104.389 140.646C110.585 140.646 115.206 148.489 115.206 164.593C115.101 178.082 111.845 182.579 106.804 182.579Z" fill="white"/>
<path d="M267.588 138.136C262.967 138.136 259.082 140.646 257.296 145.875V139.287V132.699V127.261H257.086C256.246 128.098 255.301 128.725 254.251 129.353C253.095 129.98 251.94 130.503 250.785 130.817C249.525 131.235 248.37 131.444 247.109 131.549V131.758C248.16 132.176 248.895 132.908 249.42 133.849C249.945 134.79 250.155 135.941 250.155 137.091V183.834H256.036L257.506 178.605C258.661 182.474 261.812 184.879 266.223 184.879C275.359 184.879 280.925 174.945 280.925 160.096C280.715 146.711 276.095 138.136 267.588 138.136ZM265.698 182.997C261.917 182.997 258.451 178.605 257.191 173.272V150.057C258.451 144.934 261.392 141.692 265.173 141.692C271.684 141.692 273.154 151.417 273.154 161.769C273.154 175.05 270.949 182.997 265.698 182.997Z" fill="white"/>
<path d="M289.117 135.836C291.427 135.836 293.318 133.849 293.318 131.444C293.318 129.039 291.532 127.157 289.117 127.157C286.806 127.157 284.811 129.039 284.811 131.444C284.811 133.849 286.701 135.836 289.117 135.836Z" fill="white"/>
<path d="M146.081 138.137C139.675 138.137 137.05 142.529 135.999 145.143V138.764V138.241H135.789C134.949 139.078 134.004 139.705 132.954 140.333C131.799 140.96 130.643 141.483 129.488 141.797C128.228 142.215 127.073 142.424 125.812 142.529V142.738C126.863 143.156 127.598 143.888 128.123 144.829C128.648 145.77 128.858 146.921 128.858 148.071V149.326V183.938H136.209V150.267V149.953C137.26 145.143 139.57 141.797 143.456 141.797C147.446 141.797 150.282 145.352 150.282 150.999V183.834H157.633V149.953C157.423 143.051 152.907 138.137 146.081 138.137Z" fill="white"/>
<path d="M290.167 140.228C289.012 140.855 287.857 141.378 286.702 141.692C285.441 142.11 284.286 142.319 283.026 142.424V142.633C284.076 143.051 284.811 143.783 285.336 144.725C285.861 145.666 286.071 146.816 286.071 147.966V183.834H293.423V150.267V142.633V138.241H293.003C292.268 138.869 291.322 139.601 290.167 140.228Z" fill="white"/>
<path d="M246.164 181.115C245.639 181.324 245.114 181.533 244.589 181.533C243.539 181.533 242.803 181.115 242.278 180.174C241.858 179.337 241.648 178.187 241.648 176.828C241.648 174.841 241.648 172.54 241.753 169.821C241.753 167.312 241.858 164.593 241.858 161.769C241.858 159.051 241.858 156.436 241.963 153.927C241.963 151.417 241.963 149.326 241.963 147.548C241.963 144.62 241.018 142.32 239.338 140.646C237.552 138.973 234.927 138.137 231.461 138.137C229.571 138.137 227.681 138.45 225.79 139.078C223.9 139.705 222.22 140.542 220.749 141.692C219.279 142.738 218.019 143.993 217.179 145.457C216.339 146.816 215.814 148.28 215.814 149.744C215.814 150.999 216.129 152.044 216.759 152.881C217.389 153.718 218.124 154.031 219.069 154.031C220.014 154.031 220.855 153.718 221.38 153.09C222.01 152.463 222.535 151.522 223.06 150.476C223.585 149.43 224.005 148.175 224.425 147.025C224.845 145.77 225.37 144.62 225.895 143.47C226.421 142.32 227.156 141.378 227.891 140.751C228.731 140.019 229.781 139.601 231.146 139.601C232.407 139.601 233.352 140.124 233.982 141.169C234.507 142.11 234.717 143.47 234.717 145.143C234.717 146.398 234.717 148.071 234.717 150.058C234.717 151.835 234.717 153.822 234.717 155.914C230.411 156.646 226.631 158.11 223.69 159.783C220.539 161.56 218.124 163.861 216.549 166.371C214.973 168.88 214.133 171.599 214.133 174.422C214.133 176.409 214.448 178.187 215.183 179.755C215.919 181.324 216.864 182.579 218.019 183.415C219.174 184.252 220.539 184.879 222.01 184.879C223.585 184.879 225.055 184.252 226.526 183.52C227.996 182.788 229.466 181.742 230.831 180.487C232.197 179.233 233.457 178.082 234.507 176.618C234.507 177.037 234.507 177.35 234.507 177.769C234.507 179.337 234.717 180.697 235.242 181.742C235.662 182.788 236.397 183.52 237.132 184.043C238.183 184.67 239.338 184.879 240.598 184.775C244.694 184.775 247.109 181.533 247.109 181.533L246.899 180.592L246.164 181.115ZM234.507 164.07L234.402 171.39C234.402 172.645 234.402 173.9 234.402 175.05C233.562 176.305 232.512 177.455 231.356 178.292C229.991 179.233 228.626 179.651 227.366 179.651C225.685 179.651 224.32 178.919 223.375 177.455C222.43 176.096 221.905 174.109 221.905 171.599C221.905 169.299 222.325 166.998 223.27 165.011C224.215 162.92 225.475 161.769 227.471 160.306C229.256 158.946 231.776 158.005 234.507 157.378C234.612 159.469 234.612 161.665 234.507 164.07Z" fill="white"/>
<path d="M357.064 161.979C354.229 159.992 349.293 157.796 345.932 155.286C343.307 153.299 342.152 151.208 342.152 148.385C342.152 143.47 345.512 139.392 349.608 139.392C350.553 139.392 351.393 139.705 352.023 140.228C352.654 140.751 353.179 141.483 353.599 142.424C354.019 143.261 354.439 144.202 354.754 145.247C355.069 146.189 355.489 147.13 355.804 147.966C356.224 148.803 356.644 149.535 357.169 150.058C357.589 150.581 358.22 150.79 359.06 150.79C359.795 150.79 360.425 150.476 360.95 149.849C361.475 149.221 361.685 148.385 361.685 147.339C361.685 146.189 361.37 145.038 360.635 143.888C359.9 142.738 358.955 141.797 357.799 140.96C357.379 140.646 356.854 140.333 356.329 140.019C354.439 138.869 352.128 138.137 349.608 138.137C349.503 138.137 349.398 138.137 349.293 138.137C348.663 138.137 348.138 138.137 347.613 138.241C340.681 138.973 335.956 144.306 335.956 151.103C335.956 154.868 337.531 158.11 340.471 160.41C343.202 162.606 347.718 164.802 350.658 166.893C353.914 169.299 355.174 171.494 355.174 174.213C355.174 178.814 351.813 183.625 347.298 183.625C346.877 183.625 346.562 183.625 346.142 183.52C345.512 183.415 344.987 183.102 344.462 182.788C343.832 182.265 343.307 181.533 342.887 180.592C342.467 179.755 342.047 178.814 341.732 177.769C341.416 176.828 340.996 175.886 340.681 175.05C340.261 174.213 339.841 173.481 339.316 172.958C338.896 172.436 338.266 172.226 337.426 172.226C336.691 172.226 336.061 172.54 335.535 173.168C335.01 173.795 334.8 174.632 334.8 175.677C334.8 176.828 335.115 177.978 335.85 179.128C336.586 180.278 337.531 181.219 338.686 182.056C339.631 182.788 340.681 183.311 341.837 183.729C343.517 184.461 345.512 184.879 347.928 184.879C357.379 184.879 362 178.292 362 171.494C362 167.312 360.215 164.175 357.064 161.979Z" fill="white"/>
<path d="M211.508 136.359C211.403 135.418 211.088 134.477 210.563 133.64C209.828 132.594 208.882 131.549 207.727 130.712C206.782 130.085 205.837 129.457 204.787 129.039C202.791 128.098 200.586 127.68 197.75 127.68C183.783 127.68 178.112 137.3 178.112 157.168C178.112 177.037 183.468 184.67 197.12 184.67H197.645C207.307 184.461 210.353 176.827 210.353 176.827L208.147 176.409C207.202 177.978 206.152 179.128 204.997 179.965C203.001 181.429 200.586 182.161 197.33 182.161C189.874 182.056 185.673 171.181 185.673 155.391C185.673 139.705 189.664 128.935 198.17 128.935C198.801 128.935 199.431 129.039 200.061 129.144C201.636 129.457 203.001 130.503 203.631 131.967C204.051 132.804 204.367 133.745 204.787 134.686C205.102 135.627 205.522 136.568 205.837 137.405C206.257 138.241 206.677 138.973 207.097 139.496C207.517 140.019 208.147 140.228 208.987 140.228C209.723 140.228 210.353 139.914 210.773 139.287C211.298 138.66 211.508 137.823 211.508 136.882C211.613 136.882 211.508 136.673 211.508 136.359Z" fill="white"/>
<path d="M234.402 18.9271L219.489 29.8024L180.632 0.313709L180.317 0L141.775 29.8024L127.073 18.9271L33.8159 89.5117H328.184L234.402 18.9271ZM231.986 22.1688L244.484 31.5801L245.219 30.6389L232.932 21.4368L234.402 20.3911L324.718 88.466H296.468L264.227 63.8921L264.017 64.1013L257.611 46.5336L254.145 56.154L220.434 30.5344L231.986 22.1688ZM257.611 49.8798L271.789 88.3615H243.644L257.611 49.8798ZM242.383 88.3615H238.183L243.539 74.7674L245.534 79.7867L242.383 88.3615ZM264.647 65.5653L294.578 88.3615H272.629L272.944 88.2569L264.647 65.5653ZM180.317 1.46398L253.725 57.3042L246.059 78.2182L243.434 71.6303L236.817 88.3615H213.608V67.9704H218.334L193.235 49.6706L193.13 49.5661H160.574V45.4879H156.163V49.5661H150.282V49.6706L144.611 37.0177L131.693 65.6698L125.077 53.1214L102.288 88.3615H68.0521L71.4127 85.7472L172.231 7.63359L183.888 16.522L184.623 15.5809L173.176 6.90161L174.541 5.85591L187.984 15.9992L188.719 15.058L175.591 5.01935L180.317 1.46398ZM144.716 39.8411L166.56 88.3615H122.872L144.716 39.8411ZM121.612 88.3615H103.653L125.077 55.422L131.168 67.0292L121.612 88.3615ZM159.418 49.5661H157.318V46.6381H159.418V49.5661ZM192.814 50.7163L214.868 66.8201H158.053L150.807 50.7163H192.814ZM212.558 85.3289H166.455L165.615 83.4467H198.275H206.572H212.558V85.3289V85.3289ZM199.431 74.2445H205.417V82.1918H199.431V74.2445ZM206.572 74.14H212.558V76.0222H206.572V74.14ZM212.558 72.9897H160.889L160.049 71.1075H212.558V72.9897V72.9897ZM198.275 74.14V76.0222H162.254L161.414 74.14H198.275ZM198.275 77.1725V79.0548H163.619L162.779 77.1725H198.275ZM198.275 80.3096V82.1918H165.089L164.249 80.3096H198.275ZM212.558 82.1918H206.572V80.3096H212.558V82.1918ZM212.558 79.1593H206.572V77.2771H212.558V79.1593ZM212.558 69.8526H159.523L158.578 67.9704H212.558V69.8526ZM166.98 86.4792H212.558V88.3615H167.82L166.98 86.4792ZM124.552 22.2734L135.474 30.4298L136.209 29.4887L125.497 21.4368L127.073 20.2865L140.935 30.4298L79.9192 77.7999L70.5725 85.0152L66.7918 87.9432L66.1617 88.3615H37.2815L124.552 22.2734Z" fill="white"/>
<path d="M62.6963 231.936V220.538H68.0522C71.9379 220.538 74.3534 222.106 74.3534 226.184C74.3534 230.263 72.358 231.936 68.1573 231.936H62.6963ZM67.7372 229.949C70.3627 229.949 71.8329 229.112 71.8329 226.184C71.8329 223.466 70.5727 222.42 67.7372 222.42H64.9017V229.844H67.7372V229.949Z" fill="white"/>
<path d="M76.3486 220.538H78.6591V231.936H76.3486V220.538Z" fill="white"/>
<path d="M85.5904 220.538H88.0058L93.4668 231.936H90.9463L89.5811 229.217H84.0151L82.6498 231.936H80.1294L85.5904 220.538ZM88.846 227.23L86.8506 223.152L84.8552 227.23H88.846Z" fill="white"/>
<path d="M95.252 220.538H97.7724L101.868 229.426L105.964 220.538H108.484V231.936H106.174V225.034L103.023 231.936H100.713L97.5624 225.034V231.936H95.252V220.538V220.538Z" fill="white"/>
<path d="M110.9 226.185C110.9 222.838 113.525 220.224 117.726 220.224C121.927 220.224 124.552 222.838 124.552 226.185C124.552 229.531 121.927 232.145 117.726 232.145C113.525 232.145 110.9 229.635 110.9 226.185ZM122.032 226.185C122.032 224.093 120.352 222.211 117.621 222.211C114.891 222.211 113.21 224.093 113.21 226.185C113.21 228.276 114.891 230.158 117.621 230.158C120.352 230.158 122.032 228.276 122.032 226.185Z" fill="white"/>
<path d="M126.863 220.538H129.068L135.369 228.276V220.538H137.68V231.936H135.369L129.173 224.407V231.936H126.863V220.538V220.538Z" fill="white"/>
<path d="M140.83 231.936V220.538H146.186C150.072 220.538 152.487 222.106 152.487 226.184C152.487 230.263 150.492 231.936 146.291 231.936H140.83ZM145.976 229.949C148.601 229.949 150.072 229.112 150.072 226.184C150.072 223.466 148.812 222.42 145.976 222.42H143.14V229.844H145.976V229.949Z" fill="white"/>
<path d="M159.839 226.289C159.839 222.838 162.464 220.224 166.56 220.224C170.131 220.224 172.546 222.42 172.966 224.93H170.551C170.236 223.466 168.66 222.211 166.455 222.211C163.83 222.211 162.254 223.989 162.254 226.185C162.254 228.381 163.83 230.158 166.455 230.158C168.66 230.158 170.131 228.903 170.551 227.439H172.966C172.546 230.054 170.236 232.145 166.56 232.145C162.254 232.145 159.839 229.635 159.839 226.289Z" fill="white"/>
<path d="M174.856 220.538H179.897C182.733 220.538 184.623 221.688 184.623 223.884C184.623 226.08 182.313 227.021 179.792 227.125L185.253 231.936H182.418L177.062 227.23V231.936H174.751V220.538H174.856ZM179.792 225.348C181.053 225.348 182.208 224.93 182.208 223.884C182.208 222.943 181.263 222.42 179.582 222.42H177.062V225.348H179.792Z" fill="white"/>
<path d="M186.514 226.185C186.514 222.838 189.139 220.224 193.34 220.224C197.541 220.224 200.166 222.838 200.166 226.185C200.166 229.531 197.541 232.145 193.34 232.145C189.139 232.145 186.514 229.635 186.514 226.185ZM197.646 226.185C197.646 224.093 195.965 222.211 193.235 222.211C190.504 222.211 188.824 224.093 188.824 226.185C188.824 228.276 190.504 230.158 193.235 230.158C195.965 230.158 197.646 228.276 197.646 226.185Z" fill="white"/>
<path d="M201.951 228.276H204.367C204.892 229.74 206.257 230.263 208.252 230.263C209.828 230.263 210.878 229.845 210.878 228.903C210.878 228.067 209.618 227.649 208.672 227.335C207.832 227.126 206.782 226.917 205.627 226.498C203.947 225.975 202.791 225.139 202.791 223.57C202.791 221.061 205.417 220.224 207.832 220.224C211.088 220.224 212.768 221.793 212.873 224.093H210.458C210.248 222.525 208.777 222.211 207.622 222.211C206.782 222.211 205.207 222.42 205.207 223.57C205.207 224.198 205.732 224.616 206.782 224.93C207.517 225.139 208.042 225.243 209.303 225.557C210.458 225.871 213.293 226.289 213.293 228.903C213.293 231.204 211.508 232.25 208.252 232.25C203.947 232.145 202.161 230.577 201.951 228.276Z" fill="white"/>
<path d="M214.764 228.276H217.179C217.704 229.74 219.069 230.263 221.065 230.263C222.64 230.263 223.69 229.845 223.69 228.903C223.69 228.067 222.43 227.649 221.485 227.335C220.645 227.126 219.595 226.917 218.439 226.498C216.759 225.975 215.604 225.139 215.604 223.57C215.604 221.061 218.229 220.224 220.645 220.224C223.9 220.224 225.581 221.793 225.686 224.093H223.27C223.06 222.525 221.59 222.211 220.435 222.211C219.595 222.211 218.019 222.42 218.019 223.57C218.019 224.198 218.544 224.616 219.595 224.93C220.33 225.139 220.855 225.243 222.115 225.557C223.27 225.871 226.106 226.289 226.106 228.903C226.106 231.204 224.32 232.25 221.065 232.25C216.864 232.145 214.974 230.577 214.764 228.276Z" fill="white"/>
<path d="M233.877 220.538H238.918C241.753 220.538 243.644 221.688 243.644 223.884C243.644 226.08 241.333 227.021 238.813 227.125L244.274 231.936H241.438L236.082 227.23V231.936H233.772V220.538H233.877ZM238.813 225.348C240.073 225.348 241.228 224.93 241.228 223.884C241.228 222.943 240.283 222.42 238.603 222.42H236.082V225.348H238.813Z" fill="white"/>
<path d="M250.47 220.538H252.885L258.346 231.936H255.826L254.46 229.217H248.894L247.529 231.936H245.009L250.47 220.538ZM253.725 227.23L251.73 223.152L249.735 227.23H253.725Z" fill="white"/>
<path d="M260.132 220.538H262.337L268.638 228.276V220.538H270.949V231.936H268.638L262.442 224.407V231.936H260.132V220.538V220.538Z" fill="white"/>
<path d="M273.469 226.289C273.469 222.838 276.095 220.224 280.19 220.224C283.761 220.224 286.176 222.42 286.597 224.93H284.181C283.866 223.466 282.291 222.211 280.085 222.211C277.46 222.211 275.885 223.989 275.885 226.185C275.885 228.381 277.46 230.158 280.085 230.158C282.291 230.158 283.761 228.903 284.181 227.439H286.597C286.176 230.054 283.866 232.145 280.19 232.145C275.885 232.145 273.469 229.635 273.469 226.289Z" fill="white"/>
<path d="M299.304 220.538V231.936H296.993V227.23H290.692V231.936H288.382V220.538H290.692V225.034H296.993V220.538H299.304Z" fill="white"/>
<path d="M105.334 250.027H107.644C107.854 251.386 108.59 252.014 110.27 252.014C112.58 252.014 112.685 250.654 112.685 248.04V242.289H114.996V248.772C114.996 252.014 114.261 254 110.27 254C107.224 254 105.544 252.641 105.334 250.027Z" fill="white"/>
<path d="M122.032 242.289H124.447L129.908 253.687H127.388L126.023 250.968H120.456L119.091 253.687H116.571L122.032 242.289ZM125.287 248.981L123.292 244.903L121.297 248.981H125.287Z" fill="white"/>
<path d="M130.644 248.144C130.644 244.693 133.269 242.079 137.365 242.079C140.935 242.079 143.351 244.275 143.771 246.785H141.355C141.04 245.321 139.465 244.066 137.26 244.066C134.634 244.066 133.059 245.844 133.059 248.04C133.059 250.236 134.634 252.013 137.26 252.013C139.465 252.013 140.935 250.758 141.355 249.294H143.771C143.351 251.909 141.04 254 137.365 254C133.164 254 130.644 251.49 130.644 248.144Z" fill="white"/>
<path d="M153.327 253.791L148.077 248.667V253.791H145.766V242.393H148.077V247.308L153.117 242.393H155.953L150.177 248.04L156.268 253.791H153.327Z" fill="white"/>
<path d="M156.583 250.026H158.998C159.524 251.49 160.889 252.013 162.884 252.013C164.459 252.013 165.51 251.595 165.51 250.654C165.51 249.817 164.249 249.399 163.304 249.085C162.464 248.876 161.414 248.667 160.259 248.249C158.578 247.726 157.423 246.889 157.423 245.321C157.423 242.811 160.049 241.975 162.464 241.975C165.72 241.975 167.4 243.543 167.505 245.844H165.09C164.879 244.275 163.409 243.961 162.254 243.961C161.414 243.961 159.839 244.171 159.839 245.321C159.839 245.948 160.364 246.367 161.414 246.68C162.149 246.889 162.674 246.994 163.934 247.308C165.09 247.621 167.925 248.04 167.925 250.654C167.925 252.954 166.14 254 162.884 254C158.683 254 156.898 252.327 156.583 250.026Z" fill="white"/>
<path d="M169.605 248.04C169.605 244.693 172.231 242.079 176.432 242.079C180.632 242.079 183.258 244.693 183.258 248.04C183.258 251.386 180.632 254 176.432 254C172.231 254 169.605 251.386 169.605 248.04ZM180.737 248.04C180.737 245.948 179.057 244.066 176.327 244.066C173.596 244.066 171.916 245.948 171.916 248.04C171.916 250.131 173.596 252.013 176.327 252.013C179.057 252.013 180.737 250.131 180.737 248.04Z" fill="white"/>
<path d="M185.568 242.289H187.774L194.075 250.027V242.289H196.385V253.687H194.075L187.879 246.158V253.687H185.568V242.289Z" fill="white"/>
<path d="M215.919 242.289V253.687H213.609V248.981H207.307V253.687H204.997V242.289H207.307V246.785H213.609V242.289H215.919Z" fill="white"/>
<path d="M218.334 248.04C218.334 244.693 220.959 242.079 225.16 242.079C229.361 242.079 231.986 244.693 231.986 248.04C231.986 251.386 229.361 254 225.16 254C220.959 254 218.334 251.386 218.334 248.04ZM229.466 248.04C229.466 245.948 227.786 244.066 225.055 244.066C222.325 244.066 220.644 245.948 220.644 248.04C220.644 250.131 222.325 252.013 225.055 252.013C227.786 252.013 229.466 250.131 229.466 248.04Z" fill="white"/>
<path d="M243.644 251.491V253.687H234.297V242.289H236.502V251.491H243.644Z" fill="white"/>
<path d="M255.301 251.491V253.687H245.534V242.289H254.986V244.485H247.74V246.785H254.356V248.876H247.74V251.491H255.301V251.491Z" fill="white"/>
</svg>
