<svg width="46" height="51" viewBox="0 0 46 51" fill="none" xmlns="http://www.w3.org/2000/svg">
<path d="M23 38.5371C10.259 38.5371 0 28.3699 0 15.7429V15.251H46V15.9069C46 28.3699 35.741 38.5371 23 38.5371ZM1.32374 16.3989C1.65468 28.042 11.2518 37.3892 23 37.3892C34.7482 37.3892 44.5108 28.042 44.6763 16.3989H1.32374Z" fill="#472425"/>
<path d="M12.5359 35.5091L8.52588 50.5723L9.8058 50.9069L13.8158 35.8438L12.5359 35.5091Z" fill="#472425"/>
<path d="M33.5393 35.5116L32.2593 35.8457L36.263 50.9104L37.5431 50.5762L33.5393 35.5116Z" fill="#472425"/>
<path d="M35.0792 43.1289H11.0864V44.4408H35.0792V43.1289Z" fill="#472425"/>
<path d="M16.7125 12.955C13.734 9.83923 15.2232 7.87138 16.3815 6.06752C16.7125 5.57556 17.0434 5.0836 17.3743 4.42765C18.2017 2.45981 16.0506 1.14791 15.8851 0.983923L16.547 0C17.7053 0.655949 19.5254 2.62379 18.3671 5.0836C18.0362 5.73955 17.7053 6.23151 17.3743 6.88746C16.2161 8.69132 15.3887 9.83923 17.7053 12.135L16.7125 12.955Z" fill="#472425"/>
<path d="M22.835 12.955C19.8565 9.83923 21.1803 7.87138 22.3386 6.06752C22.6695 5.57556 23.0004 5.0836 23.3314 4.42765C24.3242 2.29582 22.0076 0.983923 22.0076 0.983923L22.6695 0C23.8278 0.655949 25.6479 2.62379 24.4896 5.0836C24.1587 5.73955 23.8278 6.23151 23.4968 6.88746C22.3386 8.69132 21.5112 9.83923 23.8278 12.135L22.835 12.955Z" fill="#472425"/>
<path d="M28.957 12.955C25.9786 9.83923 27.3024 7.87138 28.4606 6.06752C28.7916 5.57556 29.1225 5.0836 29.4534 4.42765C30.4462 2.29582 28.1297 0.983923 28.1297 0.983923L28.7916 0C29.9498 0.655949 31.77 2.62379 30.6117 5.0836C30.2808 5.73955 29.9498 6.23151 29.6189 6.88746C28.4606 8.69132 27.6333 9.83923 29.9498 12.135L28.957 12.955Z" fill="#472425"/>
</svg>
