<svg width="1000" height="316" viewBox="0 0 1000 316" fill="none" xmlns="http://www.w3.org/2000/svg">
<g clip-path="url(#clip0_34_2)">
<path d="M849.648 77.6981H918.156V145.427H930.677V77.6981H999.5V66.3381H930.677V0.5H918.156V66.3381H849.648V77.6981Z" fill="#472425"/>
<path d="M606.359 315.302C567.038 315.302 540.604 292.499 540.604 258.568V166.793H575.347V258.568C575.347 278.137 592.063 285.069 606.359 285.069C625.745 285.069 637.785 274.92 637.785 258.568V166.793H672.545V258.568C672.545 293.03 646.558 315.302 606.359 315.302Z" fill="#472425"/>
<path d="M451.534 315.303C422.015 315.303 396.359 306.082 373.142 287.127L371.649 285.933L391.484 261.952L392.927 263.113C406.459 273.926 425.381 286.347 451.965 286.347C465.879 286.347 482.115 281.604 482.115 268.238C482.115 256.778 470.257 253.644 448.367 251.853C421.053 250.145 379.742 247.541 379.742 208.884C379.742 174.671 410.721 162.499 439.71 162.499C468.284 162.499 493.707 172.864 506.792 181.753L508.5 182.913L488.417 207.408L486.974 206.33C482.33 202.88 465.166 191.653 438.847 191.653C426.973 191.653 414.287 195.666 414.287 206.96C414.287 217.093 430.025 218.353 446.675 219.697L449.328 219.912C474.486 221.62 516.643 224.44 516.643 265.236C516.643 297.06 492.911 315.303 451.534 315.303Z" fill="#472425"/>
<path d="M996.123 311.008H870.417V166.811H991.181V197.242H904.945V220.775H956.769V251.008H904.945V280.759H996.123V311.008Z" fill="#472425"/>
<path d="M313.163 311.012H347.691V166.815H313.163V311.012Z" fill="#472425"/>
<path d="M283.71 311.008H158.004V166.811H278.768V197.242H192.532V220.775H244.356V251.008H192.532V280.759H283.71V311.008Z" fill="#472425"/>
<path d="M137.895 311.008H20.7788V166.811H55.3232V280.759H137.895V311.008Z" fill="#472425"/>
<path d="M788.622 229.597H740.197V196.596H786.483C791.889 196.596 797.478 197.259 801.922 202.069C804.791 204.938 806.3 208.718 806.3 212.98C806.3 222.45 798.705 229.597 788.622 229.597ZM813.464 253.395C831.043 245.02 841.06 230.393 841.06 212.98C841.06 201.703 836.748 190.94 828.921 182.649C818.738 171.985 804.509 166.794 785.405 166.794H705.669V311.008H740.197V259.383H778.92L807.295 311.008H846.964L813.464 253.395Z" fill="#472425"/>
<path d="M878.678 144.73H761.761V0.748865H796.222V114.548H878.678V144.73Z" fill="#472425"/>
<path d="M738.078 144.73H612.554V0.748865H733.152V31.1473H647.049V54.6466H698.791V84.8294H647.049V114.548H738.078V144.73Z" fill="#472425"/>
<path d="M532.117 144.73H503.079L436.279 0.748865H475.267L518.236 101.099L561.222 0.748865H598.933L532.117 144.73Z" fill="#472425"/>
<path d="M85.8736 144.73H51.3788V31.1473H0.499512V0.748865H136.537V31.1473H85.8736V144.73Z" fill="#472425"/>
<path d="M364.842 87.0606L383.88 42.6492L402.902 87.0606H364.842ZM399.038 0.741053H370.215L303.398 144.723H340.032L352.702 115.104H415.058L427.943 144.723H465.854L399.038 0.741053Z" fill="#472425"/>
<path d="M236.431 63.4404H188.072V30.5054H234.275C239.665 30.5054 245.253 31.1684 249.698 35.9612C252.55 38.8468 254.076 42.6117 254.076 46.8737C254.076 56.3266 246.481 63.4404 236.431 63.4404ZM261.224 87.2383C278.769 78.8634 288.77 64.2537 288.77 46.8737C288.77 35.6133 284.474 24.8499 276.663 16.5745C266.497 5.92764 252.285 0.7538 233.213 0.7538H153.594V144.734H188.072V93.2083H226.713L255.071 144.734H294.69L261.224 87.2383Z" fill="#472425"/>
</g>
<defs>
<clipPath id="clip0_34_2">
<rect width="1000" height="315.802" fill="white"/>
</clipPath>
</defs>
</svg>
