<svg width="212" height="228" viewBox="0 0 212 228" fill="none" xmlns="http://www.w3.org/2000/svg">
<path d="M45.8001 6.1H38.3001V28.2H32.5001V6.1H25.1001V0.800003H45.8001V6.1Z" fill="white"/>
<path d="M56 8.8V14H53.1C51 14 50 15 50 17.1V28.1H44.5V8.8H49.6V12.4C49.8 10.3 51.5 8.8 53.6 8.8H56Z" fill="white"/>
<path d="M56.7002 18.5C56.7002 12.8 60.7002 8.3 66.3002 8.3C68.5002 8.2 70.7002 9 72.4002 10.5V8.8H77.5002V28.1H72.4002V25.8C71.0002 27.8 68.6002 28.9 66.2002 28.7C60.7002 28.7 56.7002 24.1 56.7002 18.5ZM72.4002 18.5C72.4002 15.7 70.1002 13.4 67.3002 13.4C64.5002 13.4 62.2002 15.7 62.2002 18.5C62.2002 21.3 64.5002 23.6 67.3002 23.6C70.1002 23.6 72.4002 21.3 72.4002 18.5Z" fill="white"/>
<path d="M79.6001 8.8H85.5001L88.4001 19C88.7001 20.2 88.9001 21 89.1001 21.9C89.3001 21 89.5001 20.2 89.8001 19L92.7001 8.8H98.6001L92.2001 28.1H85.9001L79.6001 8.8Z" fill="white"/>
<path d="M118.4 19.8H104C104.1 22.3 106.2 24.2 108.6 24.2C110.6 24.4 112.4 23.1 112.9 21.3H118.1C117.2 26 113.7 28.8 108.5 28.8C102.4 28.8 98.4001 24.3 98.4001 18.6C98.2001 13.1 102.6 8.5 108 8.4C108.1 8.4 108.2 8.4 108.4 8.4C114.5 8.4 118.2 12.1 118.2 19L118.4 19.8ZM104.3 15.7H113.3C112.7 13.7 110.8 12.3 108.7 12.5C106.7 12.5 104.9 13.8 104.3 15.7Z" fill="white"/>
<path d="M120.9 0.699997H126.4V28.1H120.9V0.699997Z" fill="white"/>
<path d="M148.5 19.8H134.1C134.2 22.3 136.3 24.2 138.7 24.2C140.7 24.4 142.5 23.1 143 21.3H148.2C147.3 26 143.8 28.8 138.6 28.8C132.5 28.8 128.5 24.3 128.5 18.6C128.3 13.1 132.7 8.5 138.1 8.4C138.2 8.4 138.3 8.4 138.5 8.4C144.6 8.4 148.3 12.1 148.3 19L148.5 19.8ZM134.4 15.7H143.4C142.8 13.7 140.9 12.3 138.8 12.5C136.8 12.5 135 13.7 134.4 15.7Z" fill="white"/>
<path d="M162.5 8.8V14H159.6C157.5 14 156.5 15 156.5 17.1V28.1H151V8.8H156.1V12.4C156.3 10.3 158 8.8 160.1 8.8H162.5Z" fill="white"/>
<path d="M164 21.8H169.6C169.5 22.9 170.3 23.9 171.5 24C171.6 24 171.7 24 171.8 24C173.1 24 173.9 23.4 173.9 22.4C173.9 21.4 173 20.8 171.3 20.2L168.8 19.5C166.2 18.7 164.5 17 164.5 14.1C164.5 10.5 167.7 8.2 171.7 8.2C176.2 8.2 178.8 10.8 178.8 14.4H173.6C173.6 13.4 172.8 12.6 171.7 12.6C170.6 12.6 169.9 13.2 169.9 14C169.9 14.9 170.6 15.3 172.1 15.8L174.9 16.6C177.5 17.3 179.3 19.1 179.3 22C179.3 25.6 176.4 28.8 171.9 28.8C167.4 28.7 164 26.1 164 21.8Z" fill="white"/>
<path d="M181.2 9.6H181.7C183.2 9.7 184.4 8.5 184.5 7V6.9C184.3 7 184 7.1 183.7 7C181.9 7 180.3 5.6 180.3 3.7C180.3 3.6 180.3 3.6 180.3 3.5C180.3 1.6 181.8 0.1 183.7 0C186.2 0 187.5 2.3 187.5 5.2C187.5 10 185.2 12.2 181.9 12.2H181.1L181.2 9.6Z" fill="white"/>
<path d="M45.5 49.6C45.5 41.2 51.8 35.4 59.3 35.4C66.7 35.4 71.3 39.5 72.3 46H66.4C65.6 42.8 63 40.8 59.3 40.8C54.9 40.8 51.3 44.4 51.3 49.6C51.3 54.8 54.9 58.4 59.3 58.4C62.9 58.4 65.6 56.5 66.4 53.2H72.4C71.2 59.8 66.1 63.8 59.2 63.8C51.6 63.9 45.5 58.1 45.5 49.6Z" fill="white"/>
<path d="M74.8998 35.9H80.3998V46.6C81.6998 44.5 84.0998 43.3 86.4998 43.4C90.2998 43.4 92.9998 46.1 92.9998 50.5V63.3H87.4998V52.1C87.5998 50.1 86.1998 48.4 84.1998 48.2C82.1998 48.1 80.4998 49.5 80.2998 51.5C80.2998 51.7 80.2998 51.9 80.2998 52V63.2H74.7998V35.9H74.8998Z" fill="white"/>
<path d="M95.2002 53.7C95.2002 48 99.3002 43.5 105.6 43.5C111.2 43.6 115.7 48.3 115.6 53.9C115.5 59.5 110.8 64 105.2 63.9C99.6002 63.8 95.2002 59.2 95.2002 53.7ZM110.6 53.7C110.5 50.9 108.2 48.8 105.5 48.8C102.7 48.9 100.6 51.2 100.6 53.9C100.7 56.6 102.9 58.8 105.6 58.8C108.3 58.9 110.5 56.8 110.6 54.1C110.6 53.9 110.6 53.8 110.6 53.7Z" fill="white"/>
<path d="M117.5 38.1C117.5 36.2 119 34.6 120.9 34.6C122.8 34.6 124.3 36.1 124.3 38.1C124.3 40 122.8 41.6 120.9 41.6C119.1 41.6 117.5 40 117.5 38.1ZM118.2 44H123.7V63.3H118.2V44Z" fill="white"/>
<path d="M125.9 53.7C125.7 48.2 130 43.7 135.5 43.5C135.7 43.5 135.9 43.5 136.1 43.5C142.2 43.5 145.5 46.7 146.1 51.3H140.4C139.8 49.7 138.5 48.6 136.1 48.6C133.3 48.9 131.2 51.4 131.4 54.2C131.6 56.7 133.6 58.7 136.1 58.9C138 59.1 139.7 58 140.4 56.2H146.1C145.2 60.9 142 64 136.1 64C130.6 64.2 126.1 59.9 125.9 54.4C125.9 54.1 125.9 53.9 125.9 53.7Z" fill="white"/>
<path d="M167 55H152.6C152.7 57.5 154.7 59.4 157.2 59.4C159.2 59.6 161 58.3 161.6 56.5H166.8C165.9 61.2 162.4 64 157.2 64C151.1 64 147.1 59.5 147.1 53.8C146.9 48.3 151.3 43.7 156.7 43.6C156.8 43.6 156.9 43.6 157.1 43.6C163.2 43.6 166.9 47.3 166.9 54.2L167 55ZM152.9 50.9H161.9C161.3 48.9 159.4 47.5 157.3 47.7C155.3 47.7 153.5 48.9 152.9 50.9Z" fill="white"/>
<path d="M165.3 37.5H168.6V38.2H167.3V41.9H166.6V38.2H165.3V37.5Z" fill="white"/>
<path d="M171.3 40.8L170.1 37.5H169.2V41.9H169.9V39.4C169.9 39.2 169.9 39 169.9 38.7L171 41.8H171.6L172.7 38.7C172.7 38.9 172.7 39.1 172.7 39.4V41.8H173.4V37.4H172.5L171.3 40.8Z" fill="white"/>
<path d="M105.6 70C73.8 70 48 95.8 48 127.6C48 159.4 73.8 185.2 105.6 185.2C137.4 185.2 163.2 159.4 163.2 127.6C163.2 95.8 137.4 70 105.6 70ZM105.6 178.7C77.3 178.7 54.4 155.8 54.4 127.5C54.4 99.2 77.3 76.3 105.6 76.3C133.9 76.3 156.8 99.2 156.8 127.5C156.8 155.8 133.8 178.7 105.6 178.7ZM92.8 131.5C92.8 135.4 89.7 138.6 85.8 138.6C81.9 138.6 78.7 135.5 78.7 131.6C78.7 127.7 81.8 124.5 85.7 124.5C89.6 124.5 92.7 127.6 92.8 131.5ZM132.5 131.5C132.5 135.4 129.4 138.5 125.5 138.5C121.6 138.5 118.5 135.4 118.5 131.5C118.5 127.6 121.6 124.5 125.5 124.5C129.4 124.5 132.5 127.6 132.5 131.5ZM138.8 116.8L145.3 109.7H130.9C115.6 99.3 95.5 99.3 80.2 109.7H65.8L72.3 116.8C64.2 124.2 63.6 136.7 71 144.9C78.4 153 90.9 153.6 99.1 146.2C99.2 146.2 99.2 146.1 99.3 146.1L105.7 153L112.1 146.1C120.2 153.5 132.8 153 140.2 144.9C147.5 136.8 146.9 124.2 138.8 116.8ZM85.7 144.9C78.3 144.9 72.2 138.9 72.2 131.5C72.2 124.1 78.2 118 85.6 118C93 118 99.1 124 99.1 131.4C99.1 138.9 93.1 144.9 85.7 144.9ZM105.6 131.1C105.6 122.2 99.2 114.7 90.7 111.4C100.2 107.4 111 107.4 120.5 111.4C112 114.6 105.6 122.2 105.6 131.1ZM125.5 144.9C118.1 144.9 112 138.9 112 131.5C112 124.1 118 118 125.4 118C132.8 118 138.9 124 138.9 131.4C138.9 138.9 132.9 144.9 125.5 144.9Z" fill="white"/>
<path d="M73.6002 191.2C73.6002 191.2 66.6002 185.8 54.0002 184.3C46.4002 183.5 38.7002 185.3 32.2002 189.5C39.0002 192 46.1002 193.6 53.3002 194.2C66.2002 195.6 73.6002 191.2 73.6002 191.2Z" fill="white"/>
<path d="M54 180.2C54 180.2 47.7 173.7 36 169.3C28.6 166.6 20.7 166.1 13 167.6C18.8 172.6 25.4 176.5 32.6 179.2C45.1 183.9 54 180.2 54 180.2Z" fill="white"/>
<path d="M35.3 164.9C35.3 164.9 31.6 156 21.9 147C15.7 141.5 8.1 137.8 0 136.5C3.7 143.7 8.7 150.2 14.8 155.7C25.1 165.2 35.3 164.9 35.3 164.9Z" fill="white"/>
<path d="M31.6001 147.7C31.6001 147.7 30.4001 138.1 23.4001 126.9C18.9001 120 12.5001 114.5 5.1001 111.1C6.8001 119.1 9.9001 126.7 14.3001 133.5C21.8001 145.4 31.6001 147.7 31.6001 147.7Z" fill="white"/>
<path d="M32.0998 124.8C32.0998 124.8 31.7998 114.9 25.8998 103C22.1998 95.6 16.3998 89.5 9.2998 85.3C10.2998 93.5 12.6998 101.5 16.3998 108.9C22.6998 121.6 32.0998 124.8 32.0998 124.8Z" fill="white"/>
<path d="M59.9999 173.7C57.3999 168.1 53.6999 163.1 49.1999 159C44.1999 154.5 37.9999 151.4 31.3999 150.2C34.3999 156.1 38.3999 161.5 43.2999 166C51.6999 173.9 59.9999 173.7 59.9999 173.7Z" fill="white"/>
<path d="M79.9001 184.6C76.5001 181.7 72.7001 179.3 68.5001 177.8C63.9001 176.1 58.9001 175.6 54.1001 176.3C57.8001 179.4 62.1001 181.8 66.6001 183.5C74.4001 186.6 79.9001 184.6 79.9001 184.6Z" fill="white"/>
<path d="M99.2002 188.5C95.8002 187.3 92.3002 186.8 88.7002 187C84.8002 187.2 81.0002 188.4 77.7002 190.6C81.4002 191.8 85.2002 192.3 89.1002 192.1C95.8002 191.9 99.2002 188.5 99.2002 188.5Z" fill="white"/>
<path d="M51.3001 156C49.9001 150 47.4001 144.3 43.7001 139.3C39.8001 133.8 34.4001 129.6 28.1001 127.1C29.8001 133.5 32.7001 139.6 36.5001 145C43.2001 154.5 51.3001 156 51.3001 156Z" fill="white"/>
<path d="M43.5998 132.2C44.4998 126 44.0998 119.7 42.5998 113.7C40.8998 107.2 37.4998 101.2 32.5998 96.6C31.8998 103.3 32.3998 110.1 33.9998 116.6C36.5998 127.9 43.5998 132.2 43.5998 132.2Z" fill="white"/>
<path d="M137.6 191.2C137.6 191.2 144.6 185.8 157.2 184.3C164.8 183.5 172.5 185.3 179 189.5C172.2 192 165.1 193.6 157.9 194.2C145 195.6 137.6 191.2 137.6 191.2Z" fill="white"/>
<path d="M157.2 180.2C157.2 180.2 163.5 173.7 175.2 169.3C182.6 166.6 190.5 166.1 198.2 167.6C192.4 172.6 185.8 176.5 178.6 179.2C166.1 183.9 157.2 180.2 157.2 180.2Z" fill="white"/>
<path d="M175.9 164.9C175.9 164.9 179.6 156 189.3 147C195.5 141.5 203.1 137.8 211.2 136.5C207.5 143.7 202.5 150.2 196.4 155.7C186 165.2 175.9 164.9 175.9 164.9Z" fill="white"/>
<path d="M179.5 147.7C179.5 147.7 180.7 138.1 187.7 126.9C192.2 120 198.6 114.5 206.1 111.1C204.4 119.1 201.3 126.7 196.9 133.5C189.4 145.4 179.5 147.7 179.5 147.7Z" fill="white"/>
<path d="M179.1 124.8C179.1 124.8 179.4 114.9 185.3 103C189 95.6 194.8 89.5 201.9 85.3C200.9 93.5 198.5 101.5 194.8 108.9C188.5 121.6 179.1 124.8 179.1 124.8Z" fill="white"/>
<path d="M151.2 173.7C153.8 168.1 157.5 163.1 162 159C167 154.5 173.2 151.4 179.8 150.2C176.8 156.1 172.8 161.5 167.9 166C159.5 173.9 151.2 173.7 151.2 173.7Z" fill="white"/>
<path d="M131.3 184.6C134.7 181.7 138.5 179.3 142.7 177.8C147.3 176.1 152.3 175.6 157.1 176.3C153.4 179.4 149.1 181.8 144.6 183.5C136.8 186.6 131.3 184.6 131.3 184.6Z" fill="white"/>
<path d="M112 188.5C115.4 187.3 118.9 186.8 122.5 187C126.4 187.2 130.2 188.4 133.5 190.6C129.8 191.8 126 192.3 122.1 192.1C115.3 191.9 112 188.5 112 188.5Z" fill="white"/>
<path d="M159.9 156C161.3 150 163.8 144.3 167.5 139.3C171.4 133.8 176.8 129.6 183.1 127.1C181.4 133.5 178.5 139.6 174.7 145C168 154.5 159.9 156 159.9 156Z" fill="white"/>
<path d="M167.6 132.2C166.7 126 167.1 119.7 168.6 113.7C170.3 107.2 173.7 101.2 178.6 96.6C179.3 103.3 178.8 110.1 177.2 116.6C174.6 127.9 167.6 132.2 167.6 132.2Z" fill="white"/>
<path d="M105.6 194.5C107.367 194.5 108.8 193.067 108.8 191.3C108.8 189.533 107.367 188.1 105.6 188.1C103.833 188.1 102.4 189.533 102.4 191.3C102.4 193.067 103.833 194.5 105.6 194.5Z" fill="white"/>
<path d="M84.8699 223.878L84.7986 226.672V226.957C84.7986 227.195 84.6941 227.323 84.485 227.342L78.6107 227.214C74.5235 227.214 70.2509 227.309 65.793 227.499L65.6076 227.257C65.446 227.143 65.3652 226.72 65.3652 225.988C65.3652 225.246 65.3747 224.448 65.3937 223.592V223.493C65.4128 222.713 65.4223 222.119 65.4223 221.71C65.4223 221.558 66.1779 220.983 67.6893 219.985L70.1559 218.346C71.8668 217.167 73.169 216.174 74.0625 215.366C75.6214 213.949 76.4008 212.676 76.4008 211.545C76.4008 211.05 76.2487 210.661 75.9445 210.375C75.6499 210.081 75.2697 209.933 74.8039 209.933C74.3382 209.933 73.977 210.047 73.7203 210.276C73.4732 210.494 73.3211 210.741 73.2641 211.017C73.0835 211.815 72.9171 212.257 72.765 212.343C72.4704 212.352 72.0284 212.357 71.4391 212.357H67.1189L66.4773 212.343H65.9213C65.5981 212.343 65.4128 212.3 65.3652 212.215C65.4413 211.065 65.5696 210.219 65.7502 209.677C65.9973 208.774 66.4346 207.99 67.0619 207.324C67.6988 206.649 68.4544 206.127 69.3289 205.756C71.0303 205.052 72.9409 204.701 75.0605 204.701C78.3969 204.701 80.9348 205.452 82.6742 206.954C83.9764 208.056 84.6275 209.515 84.6275 211.331C84.6275 213.631 83.5867 215.736 81.5051 217.647C80.4785 218.588 79.1193 219.61 77.4273 220.712L76.4293 221.611L83.3871 221.482C83.9669 221.482 84.3566 221.682 84.5562 222.081C84.7654 222.48 84.8699 223.079 84.8699 223.878ZM97.5451 210.219C97.374 209.943 97.1411 209.734 96.8465 209.591C96.5613 209.439 96.2239 209.363 95.8342 209.363C95.4445 209.363 95.0928 209.449 94.7791 209.62C94.4749 209.781 94.2183 209.986 94.0092 210.233C93.8096 210.48 93.6385 210.817 93.4959 211.245C93.1157 212.386 92.9256 213.978 92.9256 216.021C92.9256 217.98 92.9779 219.234 93.0824 219.786C93.301 220.983 93.5957 221.843 93.9664 222.366C94.3466 222.889 94.8742 223.15 95.549 223.15C96.6231 223.15 97.3693 222.599 97.7875 221.496C98.1392 220.555 98.315 219.13 98.315 217.219V216.948C98.3531 216.368 98.3721 215.675 98.3721 214.867C98.3721 214.059 98.3626 213.507 98.3436 213.213C98.3245 212.909 98.2913 212.557 98.2438 212.158C98.1962 211.749 98.1107 211.392 97.9871 211.088C97.873 210.784 97.7257 210.494 97.5451 210.219ZM104.688 222.038C103.624 224.909 101.547 226.724 98.4576 227.485C97.5071 227.722 96.4663 227.841 95.3352 227.841C94.2135 227.841 93.1632 227.699 92.1842 227.413C90.3877 226.891 88.9667 225.954 87.9211 224.605C86.885 223.245 86.2102 221.649 85.8965 219.814C85.8109 219.405 85.7206 218.578 85.6256 217.333L85.5543 216.392C85.5543 211.925 86.9326 208.693 89.6891 206.697C91.2954 205.537 93.2963 204.839 95.6916 204.601H95.8912C99.161 204.601 101.613 205.628 103.248 207.681C104.893 209.724 105.715 212.709 105.715 216.635C105.715 218.46 105.373 220.261 104.688 222.038ZM126.503 223.878L126.431 226.672V226.957C126.431 227.195 126.327 227.323 126.118 227.342L120.244 227.214C116.156 227.214 111.884 227.309 107.426 227.499L107.24 227.257C107.079 227.143 106.998 226.72 106.998 225.988C106.998 225.246 107.008 224.448 107.027 223.592V223.493C107.046 222.713 107.055 222.119 107.055 221.71C107.055 221.558 107.811 220.983 109.322 219.985L111.789 218.346C113.5 217.167 114.802 216.174 115.695 215.366C117.254 213.949 118.034 212.676 118.034 211.545C118.034 211.05 117.882 210.661 117.577 210.375C117.283 210.081 116.902 209.933 116.437 209.933C115.971 209.933 115.61 210.047 115.353 210.276C115.106 210.494 114.954 210.741 114.897 211.017C114.716 211.815 114.55 212.257 114.398 212.343C114.103 212.352 113.661 212.357 113.072 212.357H108.752L108.11 212.343H107.554C107.231 212.343 107.046 212.3 106.998 212.215C107.074 211.065 107.202 210.219 107.383 209.677C107.63 208.774 108.067 207.99 108.695 207.324C109.332 206.649 110.087 206.127 110.962 205.756C112.663 205.052 114.574 204.701 116.693 204.701C120.03 204.701 122.568 205.452 124.307 206.954C125.609 208.056 126.26 209.515 126.26 211.331C126.26 213.631 125.22 215.736 123.138 217.647C122.111 218.588 120.752 219.61 119.06 220.712L118.062 221.611L125.02 221.482C125.6 221.482 125.989 221.682 126.189 222.081C126.398 222.48 126.503 223.079 126.503 223.878ZM147.291 223.878L147.219 226.672V226.957C147.219 227.195 147.115 227.323 146.906 227.342L141.031 227.214C136.944 227.214 132.672 227.309 128.214 227.499L128.028 227.257C127.867 227.143 127.786 226.72 127.786 225.988C127.786 225.246 127.795 224.448 127.814 223.592V223.493C127.833 222.713 127.843 222.119 127.843 221.71C127.843 221.558 128.599 220.983 130.11 219.985L132.577 218.346C134.288 217.167 135.59 216.174 136.483 215.366C138.042 213.949 138.821 212.676 138.821 211.545C138.821 211.05 138.669 210.661 138.365 210.375C138.071 210.081 137.69 209.933 137.225 209.933C136.759 209.933 136.398 210.047 136.141 210.276C135.894 210.494 135.742 210.741 135.685 211.017C135.504 211.815 135.338 212.257 135.186 212.343C134.891 212.352 134.449 212.357 133.86 212.357H129.54L128.898 212.343H128.342C128.019 212.343 127.833 212.3 127.786 212.215C127.862 211.065 127.99 210.219 128.171 209.677C128.418 208.774 128.855 207.99 129.483 207.324C130.119 206.649 130.875 206.127 131.75 205.756C133.451 205.052 135.362 204.701 137.481 204.701C140.818 204.701 143.355 205.452 145.095 206.954C146.397 208.056 147.048 209.515 147.048 211.331C147.048 213.631 146.007 215.736 143.926 217.647C142.899 218.588 141.54 219.61 139.848 220.712L138.85 221.611L145.808 221.482C146.388 221.482 146.777 221.682 146.977 222.081C147.186 222.48 147.291 223.079 147.291 223.878Z" fill="white"/>
</svg>
