<svg width="212" height="228" viewBox="0 0 212 228" fill="none" xmlns="http://www.w3.org/2000/svg">
<path d="M45.8 6.1H38.3V28.2H32.5V6.1H25.1V0.800003H45.8V6.1Z" fill="white"/>
<path d="M56 8.8V14H53.1C51 14 50 15 50 17.1V28.1H44.5V8.8H49.6V12.4C49.8 10.3 51.5 8.8 53.6 8.8H56Z" fill="white"/>
<path d="M56.7 18.5C56.7 12.8 60.7 8.3 66.3 8.3C68.5 8.2 70.7 9 72.4 10.5V8.8H77.5V28.1H72.4V25.8C71 27.8 68.6 28.9 66.2 28.7C60.7 28.7 56.7 24.1 56.7 18.5ZM72.4 18.5C72.4 15.7 70.1 13.4 67.3 13.4C64.5 13.4 62.2 15.7 62.2 18.5C62.2 21.3 64.5 23.6 67.3 23.6C70.1 23.6 72.4 21.3 72.4 18.5Z" fill="white"/>
<path d="M79.6 8.8H85.5L88.4 19C88.7 20.2 88.9 21 89.1 21.9C89.3 21 89.5 20.2 89.8 19L92.7 8.8H98.6L92.2 28.1H85.9L79.6 8.8Z" fill="white"/>
<path d="M118.4 19.8H104C104.1 22.3 106.2 24.2 108.6 24.2C110.6 24.4 112.4 23.1 112.9 21.3H118.1C117.2 26 113.7 28.8 108.5 28.8C102.4 28.8 98.4 24.3 98.4 18.6C98.2 13.1 102.6 8.5 108 8.4C108.1 8.4 108.2 8.4 108.4 8.4C114.5 8.4 118.2 12.1 118.2 19L118.4 19.8ZM104.3 15.7H113.3C112.7 13.7 110.8 12.3 108.7 12.5C106.7 12.5 104.9 13.8 104.3 15.7Z" fill="white"/>
<path d="M120.9 0.699997H126.4V28.1H120.9V0.699997Z" fill="white"/>
<path d="M148.5 19.8H134.1C134.2 22.3 136.3 24.2 138.7 24.2C140.7 24.4 142.5 23.1 143 21.3H148.2C147.3 26 143.8 28.8 138.6 28.8C132.5 28.8 128.5 24.3 128.5 18.6C128.3 13.1 132.7 8.5 138.1 8.4C138.2 8.4 138.3 8.4 138.5 8.4C144.6 8.4 148.3 12.1 148.3 19L148.5 19.8ZM134.4 15.7H143.4C142.8 13.7 140.9 12.3 138.8 12.5C136.8 12.5 135 13.7 134.4 15.7Z" fill="white"/>
<path d="M162.5 8.8V14H159.6C157.5 14 156.5 15 156.5 17.1V28.1H151V8.8H156.1V12.4C156.3 10.3 158 8.8 160.1 8.8H162.5Z" fill="white"/>
<path d="M164 21.8H169.6C169.5 22.9 170.3 23.9 171.5 24C171.6 24 171.7 24 171.8 24C173.1 24 173.9 23.4 173.9 22.4C173.9 21.4 173 20.8 171.3 20.2L168.8 19.5C166.2 18.7 164.5 17 164.5 14.1C164.5 10.5 167.7 8.2 171.7 8.2C176.2 8.2 178.8 10.8 178.8 14.4H173.6C173.6 13.4 172.8 12.6 171.7 12.6C170.6 12.6 169.9 13.2 169.9 14C169.9 14.9 170.6 15.3 172.1 15.8L174.9 16.6C177.5 17.3 179.3 19.1 179.3 22C179.3 25.6 176.4 28.8 171.9 28.8C167.4 28.7 164 26.1 164 21.8Z" fill="white"/>
<path d="M181.2 9.6H181.7C183.2 9.7 184.4 8.5 184.5 7V6.9C184.3 7 184 7.1 183.7 7C181.9 7 180.3 5.6 180.3 3.7C180.3 3.6 180.3 3.6 180.3 3.5C180.3 1.6 181.8 0.1 183.7 0C186.2 0 187.5 2.3 187.5 5.2C187.5 10 185.2 12.2 181.9 12.2H181.1L181.2 9.6Z" fill="white"/>
<path d="M45.5 49.6C45.5 41.2 51.8 35.4 59.3 35.4C66.7 35.4 71.3 39.5 72.3 46H66.4C65.6 42.8 63 40.8 59.3 40.8C54.9 40.8 51.3 44.4 51.3 49.6C51.3 54.8 54.9 58.4 59.3 58.4C62.9 58.4 65.6 56.5 66.4 53.2H72.4C71.2 59.8 66.1 63.8 59.2 63.8C51.6 63.9 45.5 58.1 45.5 49.6Z" fill="white"/>
<path d="M74.9 35.9H80.4V46.6C81.7 44.5 84.1 43.3 86.5 43.4C90.3 43.4 93 46.1 93 50.5V63.3H87.5V52.1C87.6 50.1 86.2 48.4 84.2 48.2C82.2 48.1 80.5 49.5 80.3 51.5C80.3 51.7 80.3 51.9 80.3 52V63.2H74.8V35.9H74.9Z" fill="white"/>
<path d="M95.2 53.7C95.2 48 99.3 43.5 105.6 43.5C111.2 43.6 115.7 48.3 115.6 53.9C115.5 59.5 110.8 64 105.2 63.9C99.6 63.8 95.2 59.2 95.2 53.7ZM110.6 53.7C110.5 50.9 108.2 48.8 105.5 48.8C102.7 48.9 100.6 51.2 100.6 53.9C100.7 56.6 102.9 58.8 105.6 58.8C108.3 58.9 110.5 56.8 110.6 54.1C110.6 53.9 110.6 53.8 110.6 53.7Z" fill="white"/>
<path d="M117.5 38.1C117.5 36.2 119 34.6 120.9 34.6C122.8 34.6 124.3 36.1 124.3 38.1C124.3 40 122.8 41.6 120.9 41.6C119.1 41.6 117.5 40 117.5 38.1ZM118.2 44H123.7V63.3H118.2V44Z" fill="white"/>
<path d="M125.9 53.7C125.7 48.2 130 43.7 135.5 43.5C135.7 43.5 135.9 43.5 136.1 43.5C142.2 43.5 145.5 46.7 146.1 51.3H140.4C139.8 49.7 138.5 48.6 136.1 48.6C133.3 48.9 131.2 51.4 131.4 54.2C131.6 56.7 133.6 58.7 136.1 58.9C138 59.1 139.7 58 140.4 56.2H146.1C145.2 60.9 142 64 136.1 64C130.6 64.2 126.1 59.9 125.9 54.4C125.9 54.1 125.9 53.9 125.9 53.7Z" fill="white"/>
<path d="M167 55H152.6C152.7 57.5 154.7 59.4 157.2 59.4C159.2 59.6 161 58.3 161.6 56.5H166.8C165.9 61.2 162.4 64 157.2 64C151.1 64 147.1 59.5 147.1 53.8C146.9 48.3 151.3 43.7 156.7 43.6C156.8 43.6 156.9 43.6 157.1 43.6C163.2 43.6 166.9 47.3 166.9 54.2L167 55ZM152.9 50.9H161.9C161.3 48.9 159.4 47.5 157.3 47.7C155.3 47.7 153.5 48.9 152.9 50.9Z" fill="white"/>
<path d="M165.3 37.5H168.6V38.2H167.3V41.9H166.6V38.2H165.3V37.5Z" fill="white"/>
<path d="M171.3 40.8L170.1 37.5H169.2V41.9H169.9V39.4C169.9 39.2 169.9 39 169.9 38.7L171 41.8H171.6L172.7 38.7C172.7 38.9 172.7 39.1 172.7 39.4V41.8H173.4V37.4H172.5L171.3 40.8Z" fill="white"/>
<path d="M105.6 70C73.8 70 48 95.8 48 127.6C48 159.4 73.8 185.2 105.6 185.2C137.4 185.2 163.2 159.4 163.2 127.6C163.2 95.8 137.4 70 105.6 70ZM105.6 178.7C77.3 178.7 54.4 155.8 54.4 127.5C54.4 99.2 77.3 76.3 105.6 76.3C133.9 76.3 156.8 99.2 156.8 127.5C156.8 155.8 133.8 178.7 105.6 178.7ZM92.8 131.5C92.8 135.4 89.7 138.6 85.8 138.6C81.9 138.6 78.7 135.5 78.7 131.6C78.7 127.7 81.8 124.5 85.7 124.5C89.6 124.5 92.7 127.6 92.8 131.5ZM132.5 131.5C132.5 135.4 129.4 138.5 125.5 138.5C121.6 138.5 118.5 135.4 118.5 131.5C118.5 127.6 121.6 124.5 125.5 124.5C129.4 124.5 132.5 127.6 132.5 131.5ZM138.8 116.8L145.3 109.7H130.9C115.6 99.3 95.5 99.3 80.2 109.7H65.8L72.3 116.8C64.2 124.2 63.6 136.7 71 144.9C78.4 153 90.9 153.6 99.1 146.2C99.2 146.2 99.2 146.1 99.3 146.1L105.7 153L112.1 146.1C120.2 153.5 132.8 153 140.2 144.9C147.5 136.8 146.9 124.2 138.8 116.8ZM85.7 144.9C78.3 144.9 72.2 138.9 72.2 131.5C72.2 124.1 78.2 118 85.6 118C93 118 99.1 124 99.1 131.4C99.1 138.9 93.1 144.9 85.7 144.9ZM105.6 131.1C105.6 122.2 99.2 114.7 90.7 111.4C100.2 107.4 111 107.4 120.5 111.4C112 114.6 105.6 122.2 105.6 131.1ZM125.5 144.9C118.1 144.9 112 138.9 112 131.5C112 124.1 118 118 125.4 118C132.8 118 138.9 124 138.9 131.4C138.9 138.9 132.9 144.9 125.5 144.9Z" fill="white"/>
<path d="M73.6 191.2C73.6 191.2 66.6 185.8 54 184.3C46.4 183.5 38.7 185.3 32.2 189.5C39 192 46.1 193.6 53.3 194.2C66.2 195.6 73.6 191.2 73.6 191.2Z" fill="white"/>
<path d="M54 180.2C54 180.2 47.7 173.7 36 169.3C28.6 166.6 20.7 166.1 13 167.6C18.8 172.6 25.4 176.5 32.6 179.2C45.1 183.9 54 180.2 54 180.2Z" fill="white"/>
<path d="M35.3 164.9C35.3 164.9 31.6 156 21.9 147C15.7 141.5 8.1 137.8 0 136.5C3.7 143.7 8.7 150.2 14.8 155.7C25.1 165.2 35.3 164.9 35.3 164.9Z" fill="white"/>
<path d="M31.6 147.7C31.6 147.7 30.4 138.1 23.4 126.9C18.9 120 12.5 114.5 5.10001 111.1C6.80001 119.1 9.90001 126.7 14.3 133.5C21.8 145.4 31.6 147.7 31.6 147.7Z" fill="white"/>
<path d="M32.1 124.8C32.1 124.8 31.8 114.9 25.9 103C22.2 95.6 16.4 89.5 9.3 85.3C10.3 93.5 12.7 101.5 16.4 108.9C22.7 121.6 32.1 124.8 32.1 124.8Z" fill="white"/>
<path d="M60 173.7C57.4 168.1 53.7 163.1 49.2 159C44.2 154.5 38 151.4 31.4 150.2C34.4 156.1 38.4 161.5 43.3 166C51.7 173.9 60 173.7 60 173.7Z" fill="white"/>
<path d="M79.9 184.6C76.5 181.7 72.7 179.3 68.5 177.8C63.9 176.1 58.9 175.6 54.1 176.3C57.8 179.4 62.1 181.8 66.6 183.5C74.4 186.6 79.9 184.6 79.9 184.6Z" fill="white"/>
<path d="M99.2 188.5C95.8 187.3 92.3 186.8 88.7 187C84.8 187.2 81 188.4 77.7 190.6C81.4 191.8 85.2 192.3 89.1 192.1C95.8 191.9 99.2 188.5 99.2 188.5Z" fill="white"/>
<path d="M51.3 156C49.9 150 47.4 144.3 43.7 139.3C39.8 133.8 34.4 129.6 28.1 127.1C29.8 133.5 32.7 139.6 36.5 145C43.2 154.5 51.3 156 51.3 156Z" fill="white"/>
<path d="M43.6 132.2C44.5 126 44.1 119.7 42.6 113.7C40.9 107.2 37.5 101.2 32.6 96.6C31.9 103.3 32.4 110.1 34 116.6C36.6 127.9 43.6 132.2 43.6 132.2Z" fill="white"/>
<path d="M137.6 191.2C137.6 191.2 144.6 185.8 157.2 184.3C164.8 183.5 172.5 185.3 179 189.5C172.2 192 165.1 193.6 157.9 194.2C145 195.6 137.6 191.2 137.6 191.2Z" fill="white"/>
<path d="M157.2 180.2C157.2 180.2 163.5 173.7 175.2 169.3C182.6 166.6 190.5 166.1 198.2 167.6C192.4 172.6 185.8 176.5 178.6 179.2C166.1 183.9 157.2 180.2 157.2 180.2Z" fill="white"/>
<path d="M175.9 164.9C175.9 164.9 179.6 156 189.3 147C195.5 141.5 203.1 137.8 211.2 136.5C207.5 143.7 202.5 150.2 196.4 155.7C186 165.2 175.9 164.9 175.9 164.9Z" fill="white"/>
<path d="M179.5 147.7C179.5 147.7 180.7 138.1 187.7 126.9C192.2 120 198.6 114.5 206.1 111.1C204.4 119.1 201.3 126.7 196.9 133.5C189.4 145.4 179.5 147.7 179.5 147.7Z" fill="white"/>
<path d="M179.1 124.8C179.1 124.8 179.4 114.9 185.3 103C189 95.6 194.8 89.5 201.9 85.3C200.9 93.5 198.5 101.5 194.8 108.9C188.5 121.6 179.1 124.8 179.1 124.8Z" fill="white"/>
<path d="M151.2 173.7C153.8 168.1 157.5 163.1 162 159C167 154.5 173.2 151.4 179.8 150.2C176.8 156.1 172.8 161.5 167.9 166C159.5 173.9 151.2 173.7 151.2 173.7Z" fill="white"/>
<path d="M131.3 184.6C134.7 181.7 138.5 179.3 142.7 177.8C147.3 176.1 152.3 175.6 157.1 176.3C153.4 179.4 149.1 181.8 144.6 183.5C136.8 186.6 131.3 184.6 131.3 184.6Z" fill="white"/>
<path d="M112 188.5C115.4 187.3 118.9 186.8 122.5 187C126.4 187.2 130.2 188.4 133.5 190.6C129.8 191.8 126 192.3 122.1 192.1C115.3 191.9 112 188.5 112 188.5Z" fill="white"/>
<path d="M159.9 156C161.3 150 163.8 144.3 167.5 139.3C171.4 133.8 176.8 129.6 183.1 127.1C181.4 133.5 178.5 139.6 174.7 145C168 154.5 159.9 156 159.9 156Z" fill="white"/>
<path d="M167.6 132.2C166.7 126 167.1 119.7 168.6 113.7C170.3 107.2 173.7 101.2 178.6 96.6C179.3 103.3 178.8 110.1 177.2 116.6C174.6 127.9 167.6 132.2 167.6 132.2Z" fill="white"/>
<path d="M105.6 194.5C107.367 194.5 108.8 193.067 108.8 191.3C108.8 189.533 107.367 188.1 105.6 188.1C103.833 188.1 102.4 189.533 102.4 191.3C102.4 193.067 103.833 194.5 105.6 194.5Z" fill="white"/>
<path d="M85.041 223.878L84.9697 226.672V226.957C84.9697 227.195 84.8652 227.323 84.6561 227.342L78.7818 227.214C74.6946 227.214 70.422 227.309 65.9641 227.499L65.7787 227.257C65.6171 227.143 65.5363 226.72 65.5363 225.988C65.5363 225.246 65.5458 224.448 65.5648 223.592V223.493C65.5839 222.713 65.5934 222.119 65.5934 221.71C65.5934 221.558 66.349 220.983 67.8604 219.985L70.327 218.346C72.0379 217.167 73.3401 216.174 74.2336 215.366C75.7924 213.949 76.5719 212.676 76.5719 211.545C76.5719 211.05 76.4198 210.661 76.1156 210.375C75.821 210.081 75.4408 209.933 74.975 209.933C74.5092 209.933 74.148 210.047 73.8914 210.276C73.6443 210.494 73.4922 210.741 73.4352 211.017C73.2546 211.815 73.0882 212.257 72.9361 212.343C72.6415 212.352 72.1995 212.357 71.6102 212.357H67.29L66.6484 212.343H66.0924C65.7692 212.343 65.5839 212.3 65.5363 212.215C65.6124 211.065 65.7407 210.219 65.9213 209.677C66.1684 208.774 66.6057 207.99 67.233 207.324C67.8699 206.649 68.6255 206.127 69.5 205.756C71.2014 205.052 73.112 204.701 75.2316 204.701C78.568 204.701 81.1059 205.452 82.8453 206.954C84.1475 208.056 84.7986 209.515 84.7986 211.331C84.7986 213.631 83.7578 215.736 81.6762 217.647C80.6496 218.588 79.2904 219.61 77.5984 220.712L76.6004 221.611L83.5582 221.482C84.138 221.482 84.5277 221.682 84.7273 222.081C84.9365 222.48 85.041 223.079 85.041 223.878ZM97.7162 210.219C97.5451 209.943 97.3122 209.734 97.0176 209.591C96.7324 209.439 96.395 209.363 96.0053 209.363C95.6156 209.363 95.2639 209.449 94.9502 209.62C94.646 209.781 94.3894 209.986 94.1803 210.233C93.9807 210.48 93.8096 210.817 93.667 211.245C93.2868 212.386 93.0967 213.978 93.0967 216.021C93.0967 217.98 93.149 219.234 93.2535 219.786C93.4721 220.983 93.7668 221.843 94.1375 222.366C94.5177 222.889 95.0452 223.15 95.7201 223.15C96.7942 223.15 97.5404 222.599 97.9586 221.496C98.3103 220.555 98.4861 219.13 98.4861 217.219V216.948C98.5242 216.368 98.5432 215.675 98.5432 214.867C98.5432 214.059 98.5337 213.507 98.5146 213.213C98.4956 212.909 98.4624 212.557 98.4148 212.158C98.3673 211.749 98.2818 211.392 98.1582 211.088C98.0441 210.784 97.8968 210.494 97.7162 210.219ZM104.859 222.038C103.795 224.909 101.718 226.724 98.6287 227.485C97.6782 227.722 96.6374 227.841 95.5062 227.841C94.3846 227.841 93.3343 227.699 92.3553 227.413C90.5588 226.891 89.1378 225.954 88.0922 224.605C87.0561 223.245 86.3812 221.649 86.0676 219.814C85.982 219.405 85.8917 218.578 85.7967 217.333L85.7254 216.392C85.7254 211.925 87.1036 208.693 89.8602 206.697C91.4665 205.537 93.4674 204.839 95.8627 204.601H96.0623C99.3321 204.601 101.784 205.628 103.419 207.681C105.064 209.724 105.886 212.709 105.886 216.635C105.886 218.46 105.544 220.261 104.859 222.038ZM126.674 223.878L126.603 226.672V226.957C126.603 227.195 126.498 227.323 126.289 227.342L120.415 227.214C116.327 227.214 112.055 227.309 107.597 227.499L107.412 227.257C107.25 227.143 107.169 226.72 107.169 225.988C107.169 225.246 107.179 224.448 107.198 223.592V223.493C107.217 222.713 107.226 222.119 107.226 221.71C107.226 221.558 107.982 220.983 109.493 219.985L111.96 218.346C113.671 217.167 114.973 216.174 115.866 215.366C117.425 213.949 118.205 212.676 118.205 211.545C118.205 211.05 118.053 210.661 117.748 210.375C117.454 210.081 117.074 209.933 116.608 209.933C116.142 209.933 115.781 210.047 115.524 210.276C115.277 210.494 115.125 210.741 115.068 211.017C114.887 211.815 114.721 212.257 114.569 212.343C114.274 212.352 113.832 212.357 113.243 212.357H108.923L108.281 212.343H107.725C107.402 212.343 107.217 212.3 107.169 212.215C107.245 211.065 107.374 210.219 107.554 209.677C107.801 208.774 108.238 207.99 108.866 207.324C109.503 206.649 110.258 206.127 111.133 205.756C112.834 205.052 114.745 204.701 116.864 204.701C120.201 204.701 122.739 205.452 124.478 206.954C125.78 208.056 126.431 209.515 126.431 211.331C126.431 213.631 125.391 215.736 123.309 217.647C122.282 218.588 120.923 219.61 119.231 220.712L118.233 221.611L125.191 221.482C125.771 221.482 126.161 221.682 126.36 222.081C126.569 222.48 126.674 223.079 126.674 223.878ZM146.934 218.189L147.248 218.174C147.419 218.174 147.538 218.208 147.604 218.274C147.671 218.341 147.709 218.479 147.718 218.688L147.661 218.745L147.747 222.338C147.747 223.345 147.68 223.849 147.547 223.849H146.72L146.392 223.863H145.18C145.209 224.747 145.223 225.731 145.223 226.815C145.223 227.214 145.128 227.423 144.938 227.442C143.664 227.423 142.704 227.413 142.058 227.413H141.53C139.724 227.413 138.341 227.442 137.381 227.499L137.367 227.485V227.499L137.025 227.029L137.054 224.491V223.977C137.054 223.569 136.697 223.364 135.984 223.364C135.271 223.364 134.549 223.512 133.817 223.806L129.739 223.849L128.028 223.906C127.468 223.906 127.106 223.778 126.945 223.521C126.945 221.401 126.973 219.686 127.03 218.374C127.563 217.043 128.142 215.827 128.77 214.724C129.407 213.612 130.234 212.286 131.251 210.746V210.76C131.393 210.561 131.517 210.356 131.621 210.147C133.114 207.857 134.093 206.331 134.558 205.571C134.653 205.475 134.939 205.428 135.414 205.428C135.889 205.428 136.174 205.423 136.269 205.414L137.553 205.371C139.444 205.304 141.027 205.271 142.3 205.271H144.938L145.166 205.342C145.166 205.352 145.171 205.357 145.18 205.357V206.041L145.081 214.282L145.095 215.651V215.993L145.066 216.777C145.066 217.718 145.38 218.189 146.007 218.189H146.934ZM147.718 218.688L147.847 218.545L147.918 218.716H147.718V218.688ZM147.961 218.802L147.918 218.716H148.018C148.018 218.773 147.999 218.802 147.961 218.802ZM138.08 216.863L138.123 214.952C138.123 211.758 137.795 210.138 137.139 210.09C136.92 210.214 136.759 210.352 136.654 210.504L135.927 211.801C135.823 211.982 135.642 212.31 135.385 212.785C135.129 213.251 134.929 213.607 134.787 213.854L133.988 215.252C133.437 216.221 132.933 217.124 132.477 217.961L132.662 218.346V218.716L132.976 219.03H133.432L137.424 218.959C137.823 218.778 138.047 218.521 138.094 218.189V217.889L138.08 217.576V216.863Z" fill="white"/>
</svg>
