<svg width="212" height="228" viewBox="0 0 212 228" fill="none" xmlns="http://www.w3.org/2000/svg">
<path d="M45.8001 6.1H38.3001V28.2H32.5001V6.1H25.1001V0.800003H45.8001V6.1Z" fill="white"/>
<path d="M56 8.8V14H53.1C51 14 50 15 50 17.1V28.1H44.5V8.8H49.6V12.4C49.8 10.3 51.5 8.8 53.6 8.8H56Z" fill="white"/>
<path d="M56.7002 18.5C56.7002 12.8 60.7002 8.3 66.3002 8.3C68.5002 8.2 70.7002 9 72.4002 10.5V8.8H77.5002V28.1H72.4002V25.8C71.0002 27.8 68.6002 28.9 66.2002 28.7C60.7002 28.7 56.7002 24.1 56.7002 18.5ZM72.4002 18.5C72.4002 15.7 70.1002 13.4 67.3002 13.4C64.5002 13.4 62.2002 15.7 62.2002 18.5C62.2002 21.3 64.5002 23.6 67.3002 23.6C70.1002 23.6 72.4002 21.3 72.4002 18.5Z" fill="white"/>
<path d="M79.6001 8.8H85.5001L88.4001 19C88.7001 20.2 88.9001 21 89.1001 21.9C89.3001 21 89.5001 20.2 89.8001 19L92.7001 8.8H98.6001L92.2001 28.1H85.9001L79.6001 8.8Z" fill="white"/>
<path d="M118.4 19.8H104C104.1 22.3 106.2 24.2 108.6 24.2C110.6 24.4 112.4 23.1 112.9 21.3H118.1C117.2 26 113.7 28.8 108.5 28.8C102.4 28.8 98.4001 24.3 98.4001 18.6C98.2001 13.1 102.6 8.5 108 8.4C108.1 8.4 108.2 8.4 108.4 8.4C114.5 8.4 118.2 12.1 118.2 19L118.4 19.8ZM104.3 15.7H113.3C112.7 13.7 110.8 12.3 108.7 12.5C106.7 12.5 104.9 13.8 104.3 15.7Z" fill="white"/>
<path d="M120.9 0.699997H126.4V28.1H120.9V0.699997Z" fill="white"/>
<path d="M148.5 19.8H134.1C134.2 22.3 136.3 24.2 138.7 24.2C140.7 24.4 142.5 23.1 143 21.3H148.2C147.3 26 143.8 28.8 138.6 28.8C132.5 28.8 128.5 24.3 128.5 18.6C128.3 13.1 132.7 8.5 138.1 8.4C138.2 8.4 138.3 8.4 138.5 8.4C144.6 8.4 148.3 12.1 148.3 19L148.5 19.8ZM134.4 15.7H143.4C142.8 13.7 140.9 12.3 138.8 12.5C136.8 12.5 135 13.7 134.4 15.7Z" fill="white"/>
<path d="M162.5 8.8V14H159.6C157.5 14 156.5 15 156.5 17.1V28.1H151V8.8H156.1V12.4C156.3 10.3 158 8.8 160.1 8.8H162.5Z" fill="white"/>
<path d="M164 21.8H169.6C169.5 22.9 170.3 23.9 171.5 24C171.6 24 171.7 24 171.8 24C173.1 24 173.9 23.4 173.9 22.4C173.9 21.4 173 20.8 171.3 20.2L168.8 19.5C166.2 18.7 164.5 17 164.5 14.1C164.5 10.5 167.7 8.2 171.7 8.2C176.2 8.2 178.8 10.8 178.8 14.4H173.6C173.6 13.4 172.8 12.6 171.7 12.6C170.6 12.6 169.9 13.2 169.9 14C169.9 14.9 170.6 15.3 172.1 15.8L174.9 16.6C177.5 17.3 179.3 19.1 179.3 22C179.3 25.6 176.4 28.8 171.9 28.8C167.4 28.7 164 26.1 164 21.8Z" fill="white"/>
<path d="M181.2 9.6H181.7C183.2 9.7 184.4 8.5 184.5 7V6.9C184.3 7 184 7.1 183.7 7C181.9 7 180.3 5.6 180.3 3.7C180.3 3.6 180.3 3.6 180.3 3.5C180.3 1.6 181.8 0.1 183.7 0C186.2 0 187.5 2.3 187.5 5.2C187.5 10 185.2 12.2 181.9 12.2H181.1L181.2 9.6Z" fill="white"/>
<path d="M45.5 49.6C45.5 41.2 51.8 35.4 59.3 35.4C66.7 35.4 71.3 39.5 72.3 46H66.4C65.6 42.8 63 40.8 59.3 40.8C54.9 40.8 51.3 44.4 51.3 49.6C51.3 54.8 54.9 58.4 59.3 58.4C62.9 58.4 65.6 56.5 66.4 53.2H72.4C71.2 59.8 66.1 63.8 59.2 63.8C51.6 63.9 45.5 58.1 45.5 49.6Z" fill="white"/>
<path d="M74.8998 35.9H80.3998V46.6C81.6998 44.5 84.0998 43.3 86.4998 43.4C90.2998 43.4 92.9998 46.1 92.9998 50.5V63.3H87.4998V52.1C87.5998 50.1 86.1998 48.4 84.1998 48.2C82.1998 48.1 80.4998 49.5 80.2998 51.5C80.2998 51.7 80.2998 51.9 80.2998 52V63.2H74.7998V35.9H74.8998Z" fill="white"/>
<path d="M95.2002 53.7C95.2002 48 99.3002 43.5 105.6 43.5C111.2 43.6 115.7 48.3 115.6 53.9C115.5 59.5 110.8 64 105.2 63.9C99.6002 63.8 95.2002 59.2 95.2002 53.7ZM110.6 53.7C110.5 50.9 108.2 48.8 105.5 48.8C102.7 48.9 100.6 51.2 100.6 53.9C100.7 56.6 102.9 58.8 105.6 58.8C108.3 58.9 110.5 56.8 110.6 54.1C110.6 53.9 110.6 53.8 110.6 53.7Z" fill="white"/>
<path d="M117.5 38.1C117.5 36.2 119 34.6 120.9 34.6C122.8 34.6 124.3 36.1 124.3 38.1C124.3 40 122.8 41.6 120.9 41.6C119.1 41.6 117.5 40 117.5 38.1ZM118.2 44H123.7V63.3H118.2V44Z" fill="white"/>
<path d="M125.9 53.7C125.7 48.2 130 43.7 135.5 43.5C135.7 43.5 135.9 43.5 136.1 43.5C142.2 43.5 145.5 46.7 146.1 51.3H140.4C139.8 49.7 138.5 48.6 136.1 48.6C133.3 48.9 131.2 51.4 131.4 54.2C131.6 56.7 133.6 58.7 136.1 58.9C138 59.1 139.7 58 140.4 56.2H146.1C145.2 60.9 142 64 136.1 64C130.6 64.2 126.1 59.9 125.9 54.4C125.9 54.1 125.9 53.9 125.9 53.7Z" fill="white"/>
<path d="M167 55H152.6C152.7 57.5 154.7 59.4 157.2 59.4C159.2 59.6 161 58.3 161.6 56.5H166.8C165.9 61.2 162.4 64 157.2 64C151.1 64 147.1 59.5 147.1 53.8C146.9 48.3 151.3 43.7 156.7 43.6C156.8 43.6 156.9 43.6 157.1 43.6C163.2 43.6 166.9 47.3 166.9 54.2L167 55ZM152.9 50.9H161.9C161.3 48.9 159.4 47.5 157.3 47.7C155.3 47.7 153.5 48.9 152.9 50.9Z" fill="white"/>
<path d="M165.3 37.5H168.6V38.2H167.3V41.9H166.6V38.2H165.3V37.5Z" fill="white"/>
<path d="M171.3 40.8L170.1 37.5H169.2V41.9H169.9V39.4C169.9 39.2 169.9 39 169.9 38.7L171 41.8H171.6L172.7 38.7C172.7 38.9 172.7 39.1 172.7 39.4V41.8H173.4V37.4H172.5L171.3 40.8Z" fill="white"/>
<path d="M105.6 70C73.8 70 48 95.8 48 127.6C48 159.4 73.8 185.2 105.6 185.2C137.4 185.2 163.2 159.4 163.2 127.6C163.2 95.8 137.4 70 105.6 70ZM105.6 178.7C77.3 178.7 54.4 155.8 54.4 127.5C54.4 99.2 77.3 76.3 105.6 76.3C133.9 76.3 156.8 99.2 156.8 127.5C156.8 155.8 133.8 178.7 105.6 178.7ZM92.8 131.5C92.8 135.4 89.7 138.6 85.8 138.6C81.9 138.6 78.7 135.5 78.7 131.6C78.7 127.7 81.8 124.5 85.7 124.5C89.6 124.5 92.7 127.6 92.8 131.5ZM132.5 131.5C132.5 135.4 129.4 138.5 125.5 138.5C121.6 138.5 118.5 135.4 118.5 131.5C118.5 127.6 121.6 124.5 125.5 124.5C129.4 124.5 132.5 127.6 132.5 131.5ZM138.8 116.8L145.3 109.7H130.9C115.6 99.3 95.5 99.3 80.2 109.7H65.8L72.3 116.8C64.2 124.2 63.6 136.7 71 144.9C78.4 153 90.9 153.6 99.1 146.2C99.2 146.2 99.2 146.1 99.3 146.1L105.7 153L112.1 146.1C120.2 153.5 132.8 153 140.2 144.9C147.5 136.8 146.9 124.2 138.8 116.8ZM85.7 144.9C78.3 144.9 72.2 138.9 72.2 131.5C72.2 124.1 78.2 118 85.6 118C93 118 99.1 124 99.1 131.4C99.1 138.9 93.1 144.9 85.7 144.9ZM105.6 131.1C105.6 122.2 99.2 114.7 90.7 111.4C100.2 107.4 111 107.4 120.5 111.4C112 114.6 105.6 122.2 105.6 131.1ZM125.5 144.9C118.1 144.9 112 138.9 112 131.5C112 124.1 118 118 125.4 118C132.8 118 138.9 124 138.9 131.4C138.9 138.9 132.9 144.9 125.5 144.9Z" fill="white"/>
<path d="M73.6002 191.2C73.6002 191.2 66.6002 185.8 54.0002 184.3C46.4002 183.5 38.7002 185.3 32.2002 189.5C39.0002 192 46.1002 193.6 53.3002 194.2C66.2002 195.6 73.6002 191.2 73.6002 191.2Z" fill="white"/>
<path d="M54 180.2C54 180.2 47.7 173.7 36 169.3C28.6 166.6 20.7 166.1 13 167.6C18.8 172.6 25.4 176.5 32.6 179.2C45.1 183.9 54 180.2 54 180.2Z" fill="white"/>
<path d="M35.3 164.9C35.3 164.9 31.6 156 21.9 147C15.7 141.5 8.1 137.8 0 136.5C3.7 143.7 8.7 150.2 14.8 155.7C25.1 165.2 35.3 164.9 35.3 164.9Z" fill="white"/>
<path d="M31.6001 147.7C31.6001 147.7 30.4001 138.1 23.4001 126.9C18.9001 120 12.5001 114.5 5.1001 111.1C6.8001 119.1 9.9001 126.7 14.3001 133.5C21.8001 145.4 31.6001 147.7 31.6001 147.7Z" fill="white"/>
<path d="M32.0998 124.8C32.0998 124.8 31.7998 114.9 25.8998 103C22.1998 95.6 16.3998 89.5 9.2998 85.3C10.2998 93.5 12.6998 101.5 16.3998 108.9C22.6998 121.6 32.0998 124.8 32.0998 124.8Z" fill="white"/>
<path d="M59.9999 173.7C57.3999 168.1 53.6999 163.1 49.1999 159C44.1999 154.5 37.9999 151.4 31.3999 150.2C34.3999 156.1 38.3999 161.5 43.2999 166C51.6999 173.9 59.9999 173.7 59.9999 173.7Z" fill="white"/>
<path d="M79.9001 184.6C76.5001 181.7 72.7001 179.3 68.5001 177.8C63.9001 176.1 58.9001 175.6 54.1001 176.3C57.8001 179.4 62.1001 181.8 66.6001 183.5C74.4001 186.6 79.9001 184.6 79.9001 184.6Z" fill="white"/>
<path d="M99.2002 188.5C95.8002 187.3 92.3002 186.8 88.7002 187C84.8002 187.2 81.0002 188.4 77.7002 190.6C81.4002 191.8 85.2002 192.3 89.1002 192.1C95.8002 191.9 99.2002 188.5 99.2002 188.5Z" fill="white"/>
<path d="M51.3001 156C49.9001 150 47.4001 144.3 43.7001 139.3C39.8001 133.8 34.4001 129.6 28.1001 127.1C29.8001 133.5 32.7001 139.6 36.5001 145C43.2001 154.5 51.3001 156 51.3001 156Z" fill="white"/>
<path d="M43.5998 132.2C44.4998 126 44.0998 119.7 42.5998 113.7C40.8998 107.2 37.4998 101.2 32.5998 96.6C31.8998 103.3 32.3998 110.1 33.9998 116.6C36.5998 127.9 43.5998 132.2 43.5998 132.2Z" fill="white"/>
<path d="M137.6 191.2C137.6 191.2 144.6 185.8 157.2 184.3C164.8 183.5 172.5 185.3 179 189.5C172.2 192 165.1 193.6 157.9 194.2C145 195.6 137.6 191.2 137.6 191.2Z" fill="white"/>
<path d="M157.2 180.2C157.2 180.2 163.5 173.7 175.2 169.3C182.6 166.6 190.5 166.1 198.2 167.6C192.4 172.6 185.8 176.5 178.6 179.2C166.1 183.9 157.2 180.2 157.2 180.2Z" fill="white"/>
<path d="M175.9 164.9C175.9 164.9 179.6 156 189.3 147C195.5 141.5 203.1 137.8 211.2 136.5C207.5 143.7 202.5 150.2 196.4 155.7C186 165.2 175.9 164.9 175.9 164.9Z" fill="white"/>
<path d="M179.5 147.7C179.5 147.7 180.7 138.1 187.7 126.9C192.2 120 198.6 114.5 206.1 111.1C204.4 119.1 201.3 126.7 196.9 133.5C189.4 145.4 179.5 147.7 179.5 147.7Z" fill="white"/>
<path d="M179.1 124.8C179.1 124.8 179.4 114.9 185.3 103C189 95.6 194.8 89.5 201.9 85.3C200.9 93.5 198.5 101.5 194.8 108.9C188.5 121.6 179.1 124.8 179.1 124.8Z" fill="white"/>
<path d="M151.2 173.7C153.8 168.1 157.5 163.1 162 159C167 154.5 173.2 151.4 179.8 150.2C176.8 156.1 172.8 161.5 167.9 166C159.5 173.9 151.2 173.7 151.2 173.7Z" fill="white"/>
<path d="M131.3 184.6C134.7 181.7 138.5 179.3 142.7 177.8C147.3 176.1 152.3 175.6 157.1 176.3C153.4 179.4 149.1 181.8 144.6 183.5C136.8 186.6 131.3 184.6 131.3 184.6Z" fill="white"/>
<path d="M112 188.5C115.4 187.3 118.9 186.8 122.5 187C126.4 187.2 130.2 188.4 133.5 190.6C129.8 191.8 126 192.3 122.1 192.1C115.3 191.9 112 188.5 112 188.5Z" fill="white"/>
<path d="M159.9 156C161.3 150 163.8 144.3 167.5 139.3C171.4 133.8 176.8 129.6 183.1 127.1C181.4 133.5 178.5 139.6 174.7 145C168 154.5 159.9 156 159.9 156Z" fill="white"/>
<path d="M167.6 132.2C166.7 126 167.1 119.7 168.6 113.7C170.3 107.2 173.7 101.2 178.6 96.6C179.3 103.3 178.8 110.1 177.2 116.6C174.6 127.9 167.6 132.2 167.6 132.2Z" fill="white"/>
<path d="M105.6 194.5C107.367 194.5 108.8 193.067 108.8 191.3C108.8 189.533 107.367 188.1 105.6 188.1C103.833 188.1 102.4 189.533 102.4 191.3C102.4 193.067 103.833 194.5 105.6 194.5Z" fill="white"/>
<path d="M84.0002 223.878L83.9289 226.672V226.957C83.9289 227.195 83.8243 227.323 83.6152 227.342L77.741 227.214C73.6538 227.214 69.3812 227.309 64.9232 227.499L64.7379 227.257C64.5763 227.143 64.4955 226.72 64.4955 225.988C64.4955 225.246 64.505 224.448 64.524 223.592V223.493C64.543 222.713 64.5525 222.119 64.5525 221.71C64.5525 221.558 65.3082 220.983 66.8195 219.985L69.2861 218.346C70.9971 217.167 72.2993 216.174 73.1928 215.366C74.7516 213.949 75.5311 212.676 75.5311 211.545C75.5311 211.05 75.379 210.661 75.0748 210.375C74.7801 210.081 74.3999 209.933 73.9342 209.933C73.4684 209.933 73.1072 210.047 72.8506 210.276C72.6034 210.494 72.4514 210.741 72.3943 211.017C72.2137 211.815 72.0474 212.257 71.8953 212.343C71.6006 212.352 71.1587 212.357 70.5693 212.357H66.2492L65.6076 212.343H65.0516C64.7284 212.343 64.543 212.3 64.4955 212.215C64.5715 211.065 64.6999 210.219 64.8805 209.677C65.1276 208.774 65.5648 207.99 66.1922 207.324C66.829 206.649 67.5847 206.127 68.4592 205.756C70.1606 205.052 72.0712 204.701 74.1908 204.701C77.5271 204.701 80.065 205.452 81.8045 206.954C83.1067 208.056 83.7578 209.515 83.7578 211.331C83.7578 213.631 82.717 215.736 80.6353 217.647C79.6088 218.588 78.2495 219.61 76.5576 220.712L75.5596 221.611L82.5174 221.482C83.0972 221.482 83.4869 221.682 83.6865 222.081C83.8956 222.48 84.0002 223.079 84.0002 223.878ZM96.6754 210.219C96.5043 209.943 96.2714 209.734 95.9768 209.591C95.6916 209.439 95.3542 209.363 94.9645 209.363C94.5747 209.363 94.223 209.449 93.9094 209.62C93.6052 209.781 93.3486 209.986 93.1395 210.233C92.9398 210.48 92.7687 210.817 92.6262 211.245C92.246 212.386 92.0559 213.978 92.0559 216.021C92.0559 217.98 92.1081 219.234 92.2127 219.786C92.4313 220.983 92.726 221.843 93.0967 222.366C93.4769 222.889 94.0044 223.15 94.6793 223.15C95.7534 223.15 96.4995 222.599 96.9178 221.496C97.2695 220.555 97.4453 219.13 97.4453 217.219V216.948C97.4833 216.368 97.5023 215.675 97.5023 214.867C97.5023 214.059 97.4928 213.507 97.4738 213.213C97.4548 212.909 97.4215 212.557 97.374 212.158C97.3265 211.749 97.2409 211.392 97.1174 211.088C97.0033 210.784 96.856 210.494 96.6754 210.219ZM103.819 222.038C102.754 224.909 100.677 226.724 97.5879 227.485C96.6374 227.722 95.5965 227.841 94.4654 227.841C93.3438 227.841 92.2935 227.699 91.3145 227.413C89.518 226.891 88.0969 225.954 87.0514 224.605C86.0153 223.245 85.3404 221.649 85.0268 219.814C84.9412 219.405 84.8509 218.578 84.7559 217.333L84.6846 216.392C84.6846 211.925 86.0628 208.693 88.8193 206.697C90.4257 205.537 92.4266 204.839 94.8219 204.601H95.0215C98.2913 204.601 100.744 205.628 102.379 207.681C104.023 209.724 104.845 212.709 104.845 216.635C104.845 218.46 104.503 220.261 103.819 222.038ZM125.633 223.878L125.562 226.672V226.957C125.562 227.195 125.457 227.323 125.248 227.342L119.374 227.214C115.287 227.214 111.014 227.309 106.556 227.499L106.371 227.257C106.209 227.143 106.128 226.72 106.128 225.988C106.128 225.246 106.138 224.448 106.157 223.592V223.493C106.176 222.713 106.185 222.119 106.185 221.71C106.185 221.558 106.941 220.983 108.452 219.985L110.919 218.346C112.63 217.167 113.932 216.174 114.826 215.366C116.384 213.949 117.164 212.676 117.164 211.545C117.164 211.05 117.012 210.661 116.708 210.375C116.413 210.081 116.033 209.933 115.567 209.933C115.101 209.933 114.74 210.047 114.483 210.276C114.236 210.494 114.084 210.741 114.027 211.017C113.847 211.815 113.68 212.257 113.528 212.343C113.233 212.352 112.791 212.357 112.202 212.357H107.882L107.24 212.343H106.684C106.361 212.343 106.176 212.3 106.128 212.215C106.204 211.065 106.333 210.219 106.513 209.677C106.76 208.774 107.198 207.99 107.825 207.324C108.462 206.649 109.218 206.127 110.092 205.756C111.793 205.052 113.704 204.701 115.824 204.701C119.16 204.701 121.698 205.452 123.437 206.954C124.74 208.056 125.391 209.515 125.391 211.331C125.391 213.631 124.35 215.736 122.268 217.647C121.242 218.588 119.882 219.61 118.19 220.712L117.192 221.611L124.15 221.482C124.73 221.482 125.12 221.682 125.319 222.081C125.528 222.48 125.633 223.079 125.633 223.878ZM141.901 206.896L141.873 211.088C141.873 213.883 141.896 216.288 141.944 218.303L142.072 227.157C141.835 227.375 141.222 227.485 140.233 227.485L139.007 227.456H138.764L138.18 227.471H137.595L136.697 227.485C135.737 227.485 134.787 227.471 133.846 227.442L133.617 227.086C133.522 226.952 133.475 226.653 133.475 226.187C133.475 225.722 133.513 222.637 133.589 216.934L133.646 213.027C132.087 214.092 130.566 214.857 129.083 215.323C129.017 215.313 128.979 215.271 128.969 215.195V213.683L128.955 213.042C128.955 210.542 128.974 209.287 129.012 209.278C129.05 209.259 129.188 209.182 129.426 209.049C129.673 208.916 129.953 208.788 130.267 208.664C130.58 208.541 130.766 208.455 130.823 208.408C130.889 208.36 130.965 208.318 131.051 208.279C133.494 207.11 134.986 206.103 135.528 205.257L139.919 205.342C140.794 205.342 141.44 205.323 141.858 205.285C141.887 205.342 141.901 205.609 141.901 206.084V206.896Z" fill="white"/>
</svg>
