<svg width="608" height="98" viewBox="0 0 608 98" fill="none" xmlns="http://www.w3.org/2000/svg">
<g clip-path="url(#clip0_2_2590)">
<path d="M535.432 18.4395C524.69 18.4395 520.274 25.816 518.483 30.0992V19.3913V18.4395H518.006C516.693 19.7482 515.022 20.938 513.232 22.0088C511.322 23.0796 509.412 23.9124 507.383 24.5073C505.354 25.1022 503.206 25.5781 501.177 25.6971V26.054C502.848 26.7679 504.161 27.9576 504.996 29.5043C505.832 31.17 506.19 32.9547 506.19 34.9773V37.1189V95.1798H518.483V38.6656V38.1897C520.274 29.9802 524.093 24.5073 530.538 24.5073C537.342 24.5073 541.997 30.4561 541.997 39.9743V95.1798H554.29V38.1897C554.41 26.7679 546.89 18.4395 535.432 18.4395Z" fill="white"/>
<path d="M60.6329 22.3657L56.4554 -0.00195312H56.0974C55.3812 1.3068 54.307 2.13964 53.1135 2.8535C51.8005 3.44838 50.2489 3.80532 48.3392 3.80532H12.1743C10.384 3.80532 8.83235 3.44838 7.63879 2.8535C6.32587 2.25861 5.25167 1.3068 4.53553 -0.00195312H4.17746L0 22.3657L0.477424 22.6037C1.79034 20.3431 3.22261 18.2015 4.65489 16.2979C6.08716 14.3943 7.63879 12.6096 9.30978 11.0629C10.8614 9.51622 12.5324 8.32645 14.084 7.37463C15.6356 6.42281 17.3066 6.06588 18.8583 6.06588C20.6486 6.06588 21.9615 6.54179 22.797 7.37463C23.6325 8.32645 24.1099 9.6352 24.1099 11.5388V23.3176V25.6971V83.52C24.1099 85.8995 23.7519 87.9222 22.9164 89.8258C22.0809 91.6104 20.6486 93.3951 18.5002 94.8228V95.1798H41.7746V94.8228C39.8649 93.2761 38.552 91.6104 37.7165 89.8258C36.881 88.0411 36.4036 85.8995 36.4036 83.52V25.6971V11.5388C36.4036 9.6352 36.881 8.32645 37.7165 7.37463C38.552 6.42281 39.8649 6.06588 41.6553 6.06588C43.2069 6.06588 44.7585 6.54179 46.4295 7.37463C48.1005 8.32645 49.6521 9.51622 51.2038 10.9439C52.7554 12.4906 54.307 14.1563 55.7393 16.1789C57.1716 18.2016 58.7232 20.3431 60.1555 22.6037L60.6329 22.3657Z" fill="white"/>
<path d="M144.063 93.0387C136.424 93.0387 133.559 86.0191 133.559 79.5943V43.3063V24.9838H146.808V21.7714H133.44V4.63867H133.082C131.769 7.49413 130.098 10.2306 128.188 12.7291C126.278 15.2276 124.011 17.4882 121.624 19.5108C119.117 21.5334 116.491 23.1991 113.746 24.5079V24.9838H121.146V30.8137V77.9286C121.146 88.9935 126.875 96.846 140.363 96.846C144.779 96.846 148.598 96.0132 151.701 93.0387L150.627 90.3023C148.121 92.3249 146.45 93.0387 144.063 93.0387Z" fill="white"/>
<path d="M110.524 52.7047C110.524 34.0253 102.766 18.3203 86.4141 18.3203C69.3462 18.3203 56.0977 35.334 56.0977 59.4864C56.0977 80.1884 63.7364 96.9642 87.369 96.9642C95.6045 96.9642 102.885 91.2533 107.66 83.5198L103.959 82.9249C99.4239 90.4205 92.74 92.919 87.727 92.919C75.314 92.919 69.4655 74.5965 69.4655 57.9397C69.4655 55.7981 69.4655 53.6565 69.5849 52.7047H110.524V52.7047ZM85.8173 22.3655C96.6787 22.3655 100.617 36.8808 100.617 48.0646H70.1817C71.8527 34.6202 75.7914 22.3655 85.8173 22.3655Z" fill="white"/>
<path d="M178.557 18.3203C156.834 18.3203 149.911 35.572 149.911 59.4864C149.911 83.9957 157.311 96.8452 176.05 96.8452C193.476 96.8452 204.934 85.8993 204.934 55.7981C205.054 30.8129 196.938 18.3203 178.557 18.3203ZM179.273 93.038C167.934 93.038 162.324 79.8315 162.324 53.8945C162.324 30.9319 166.74 22.4845 175.095 22.4845C185.479 22.4845 193.237 35.572 193.237 62.8178C193.237 85.5424 187.866 93.038 179.273 93.038Z" fill="white"/>
<path d="M449.376 18.3205C441.498 18.3205 435.173 22.6037 432.069 31.2891V20.2242V9.15929V-0.00195312H431.592C430.279 1.3068 428.608 2.49657 426.818 3.56736C424.908 4.63816 422.998 5.471 420.969 6.06588C418.94 6.66077 416.792 7.13668 414.763 7.25566V7.61259C416.434 8.32645 417.747 9.51622 418.582 11.0629C419.418 12.7286 419.776 14.5133 419.776 16.5359V95.1798H429.563L432.069 86.3755C433.979 92.9192 439.35 96.8455 446.75 96.8455C462.028 96.8455 471.457 80.0697 471.457 55.2035C471.457 32.7168 463.699 18.3205 449.376 18.3205ZM446.273 93.7521C439.947 93.7521 434.218 86.2565 432.069 77.3332V38.3087C434.218 29.7424 439.111 24.2694 445.437 24.2694C456.418 24.2694 458.805 40.6883 458.805 58.0589C458.805 80.4266 454.986 93.7521 446.273 93.7521Z" fill="white"/>
<path d="M485.541 14.5131C489.479 14.5131 492.702 11.0628 492.702 7.13652C492.702 3.09129 489.718 -0.121094 485.541 -0.121094C481.602 -0.121094 478.26 3.09129 478.26 7.13652C478.26 11.0628 481.602 14.5131 485.541 14.5131Z" fill="white"/>
<path d="M245.396 18.3201C234.654 18.3201 230.238 25.6967 228.448 29.9799V19.153V18.2012H227.97C226.657 19.5099 224.986 20.6997 223.196 21.7705C221.286 22.8413 219.377 23.6741 217.348 24.269C215.319 24.8639 213.17 25.3398 211.141 25.4588V25.8157C212.812 26.5296 214.125 27.7194 214.961 29.2661C215.796 30.9317 216.154 32.7164 216.154 34.739V36.8806V94.9415H228.448V38.5463V38.0704C230.238 29.8609 234.057 24.388 240.503 24.388C247.306 24.388 251.961 30.3369 251.961 39.855V95.0605H264.255V38.0704C264.374 26.6486 256.855 18.3201 245.396 18.3201Z" fill="white"/>
<path d="M487.331 21.8896C485.422 22.9604 483.512 23.7933 481.483 24.3881C479.454 24.983 477.305 25.4589 475.276 25.5779V25.9349C476.947 26.6487 478.26 27.8385 479.096 29.3852C479.931 31.0509 480.289 32.8355 480.289 34.8581V95.1796H492.583V38.5464V25.6969V18.3203H492.106C490.793 19.6291 489.241 20.8188 487.331 21.8896Z" fill="white"/>
<path d="M413.449 90.6584C412.614 91.1343 411.778 91.3723 410.824 91.3723C409.153 91.3723 407.84 90.5395 407.004 88.9928C406.288 87.565 405.811 85.6614 405.811 83.2818C405.811 79.9505 405.811 76.0242 405.93 71.6221C406.049 67.3389 406.049 62.6988 406.169 58.0587C406.169 53.4186 406.288 49.1354 406.288 44.9712C406.288 40.807 406.288 37.2377 406.288 34.2633C406.288 29.3852 404.736 25.4589 401.752 22.6035C398.769 19.748 394.233 18.3203 388.504 18.3203C385.401 18.3203 382.178 18.9152 378.955 19.867C375.733 20.9378 372.868 22.3655 370.362 24.2692C367.855 26.0538 365.826 28.1954 364.394 30.575C362.962 32.8355 362.126 35.334 362.126 37.8326C362.126 39.9742 362.604 41.7588 363.678 43.0676C364.633 44.3763 365.946 45.0902 367.617 45.0902C369.288 45.0902 370.601 44.6143 371.555 43.5435C372.63 42.3537 373.584 40.926 374.301 39.1413C375.136 37.3567 375.852 35.334 376.568 33.3114C377.284 31.2888 378.12 29.2662 378.955 27.3626C379.91 25.4589 380.985 23.9122 382.417 22.7225C383.849 21.5327 385.639 20.8188 387.788 20.8188C389.936 20.8188 391.607 21.6517 392.562 23.4363C393.398 25.102 393.875 27.2436 393.875 30.0991C393.875 32.2406 393.875 35.0961 393.875 38.4275C393.875 41.4019 393.875 44.7332 393.875 48.3026C386.594 49.4923 380.388 51.9908 375.375 54.8463C370.004 57.9397 365.946 61.628 363.32 65.9112C360.694 70.0754 359.262 74.7155 359.262 79.4746C359.262 82.8059 359.858 85.8993 361.052 88.5168C362.246 91.1343 363.797 93.1569 365.826 94.5847C367.855 96.0124 370.123 97.0832 372.63 97.0832C375.255 97.0832 377.762 96.0124 380.268 94.8226C382.775 93.5139 385.162 91.8482 387.549 89.7066C389.817 87.684 391.965 85.6614 393.636 83.1629C393.636 83.8767 393.636 84.4716 393.636 85.1855C393.636 87.803 393.994 90.0635 394.83 91.8482C395.546 93.6329 396.74 94.9416 398.052 95.7744C399.723 96.8452 401.752 97.2022 403.901 96.9642C410.824 96.9642 414.882 91.6102 414.882 91.6102L414.524 90.0635L413.449 90.6584ZM393.875 61.866L393.756 74.2396C393.756 76.3812 393.756 78.4038 393.756 80.4264C392.323 82.568 390.533 84.4716 388.504 85.8993C386.236 87.446 383.849 88.1599 381.82 88.1599C378.955 88.1599 376.807 86.9701 375.136 84.4716C373.584 82.0921 372.749 78.7607 372.749 74.5965C372.749 70.6703 373.584 66.863 375.136 63.5316C376.688 60.0813 378.836 58.0587 382.178 55.6791C385.281 53.4186 389.339 51.7529 393.994 50.6821C393.994 54.1324 393.994 57.9397 393.875 61.866Z" fill="white"/>
<path d="M599.765 58.5348C594.99 55.0844 586.755 51.5151 581.026 47.2319C576.61 43.7816 574.581 40.3313 574.581 35.5722C574.581 27.2438 580.19 20.4621 587.113 20.3431C588.665 20.3431 590.097 20.819 591.052 21.7708C592.126 22.7226 593.081 23.9124 593.797 25.4591C594.513 26.8868 595.11 28.5525 595.707 30.0992C596.303 31.7649 596.9 33.3116 597.497 34.7393C598.094 36.1671 598.81 37.3568 599.645 38.1897C600.481 39.0225 601.436 39.4984 602.749 39.4984C604.062 39.4984 605.016 39.0225 605.852 37.9517C606.687 36.8809 607.045 35.4532 607.045 33.7875C607.045 31.7649 606.449 29.8613 605.255 28.0766C604.062 26.173 602.51 24.5073 600.481 23.0796C599.645 22.4847 598.81 22.0088 597.974 21.5329C594.871 19.6292 590.932 18.4395 586.636 18.4395C586.516 18.4395 586.277 18.4395 586.158 18.4395C585.203 18.4395 584.248 18.5584 583.413 18.5584C571.716 19.8672 563.839 28.7905 563.839 40.2123C563.839 46.637 566.464 51.872 571.477 55.9173C576.013 59.6056 583.532 63.2938 588.665 66.8632C594.155 70.9084 596.303 74.7157 596.303 79.1178C596.303 86.8513 590.574 94.9418 583.055 94.9418C582.458 94.9418 581.742 94.8228 581.145 94.8228C580.071 94.5848 579.116 94.2279 578.4 93.5141C577.326 92.5622 576.371 91.3725 575.655 89.8258C574.939 88.398 574.342 86.7324 573.745 85.1856C573.148 83.52 572.552 81.9733 571.955 80.5455C571.358 79.1178 570.642 77.928 569.806 77.0952C568.971 76.2624 568.016 75.7865 566.703 75.7865C565.39 75.7865 564.435 76.2624 563.6 77.3332C562.764 78.404 562.406 79.8317 562.406 81.4974C562.406 83.52 563.003 85.4236 564.197 87.2083C565.39 89.1119 566.942 90.7776 568.971 92.2053C570.522 93.3951 572.313 94.3469 574.222 95.0608C577.087 96.2505 580.429 96.9644 584.368 96.9644C600.242 96.9644 608.12 85.8995 608.12 74.3587C608 67.458 605.136 62.1041 599.765 58.5348Z" fill="white"/>
<path d="M355.204 15.3455C354.965 13.7988 354.488 12.2521 353.533 10.8243C352.339 9.03967 350.788 7.37399 348.878 5.94626C347.327 4.87547 345.656 3.92365 343.865 3.20979C340.523 1.66308 336.704 0.949219 332.168 0.949219C308.775 0.949219 299.226 17.1301 299.226 50.5627C299.226 83.8764 308.178 96.7259 331.213 96.8449H332.168C348.281 96.4879 353.533 83.6384 353.533 83.6384L349.833 83.0435C348.281 85.661 346.372 87.5647 344.462 89.1114C341.239 91.4909 337.062 92.7997 331.452 92.6807C318.92 92.4427 311.878 74.2392 311.878 47.5883C311.878 21.1754 318.562 3.20979 332.884 3.20979C333.959 3.20979 335.033 3.32876 335.988 3.56672C338.614 4.1616 340.881 5.82729 342.075 8.32581C342.791 9.75353 343.388 11.3002 343.985 12.9659C344.581 14.5126 345.178 16.0593 345.775 17.4871C346.372 18.9148 347.088 20.1046 347.923 20.9374C348.759 21.7702 349.714 22.1272 351.027 22.1272C352.339 22.1272 353.294 21.6513 354.13 20.5805C354.965 19.5097 355.323 18.2009 355.323 16.5352C355.323 16.1783 355.323 15.9404 355.204 15.5834H355.323C355.323 15.4644 355.323 15.3455 355.204 15.3455Z" fill="white"/>
</g>
<defs>
<clipPath id="clip0_2_2590">
<rect width="608" height="98" fill="white"/>
</clipPath>
</defs>
</svg>
