<?xml version="1.0" encoding="utf-8"?>
<!-- Generator: Adobe Illustrator 23.1.0, SVG Export Plug-In . SVG Version: 6.00 Build 0)  -->
<svg version="1.1" id="Layer_1" xmlns="http://www.w3.org/2000/svg" xmlns:xlink="http://www.w3.org/1999/xlink" x="0px" y="0px"
	 viewBox="0 0 191.3 300" style="enable-background:new 0 0 191.3 300;" xml:space="preserve">
<style type="text/css">
	.st0{fill:#F3F1ED;}
</style>
<g>
	<g>
		<path class="st0" d="M95.6,130.6C73.8,130.6,56,112.8,56,91s17.8-39.6,39.6-39.6s39.6,17.8,39.6,39.6S117.5,130.6,95.6,130.6z
			 M95.6,61.9c-16,0-29,13-29,29s13,29,29,29s29-13,29-29S111.6,61.9,95.6,61.9z"/>
	</g>
	<g>
		<path class="st0" d="M95.6,300l-4.5-7.2C87.4,286.9,0,146.5,0,95.6C0,42.9,42.9,0,95.6,0s95.6,42.9,95.6,95.6
			c0,50.8-87.4,191.2-91.1,197.2L95.6,300z M95.6,10.6c-46.9,0-85,38.1-85,85c0,41.5,66.9,154.3,85,184.2
			c18.2-29.9,85-142.7,85-184.2C180.7,48.8,142.5,10.6,95.6,10.6z"/>
	</g>
</g>
</svg>
